<?xml version="1.0" standalone="no"?>
<!DOCTYPE svg PUBLIC "-//W3C//DTD SVG 20010904//EN"
 "http://www.w3.org/TR/2001/REC-SVG-20010904/DTD/svg10.dtd">
<svg version="1.0" xmlns="http://www.w3.org/2000/svg"
 width="357.000000pt" height="309.000000pt" viewBox="0 0 357.000000 309.000000"
 preserveAspectRatio="xMidYMid meet">
<metadata>
Created by potrace 1.10, written by Peter Selinger 2001-2011
</metadata>
<g transform="translate(0.000000,309.000000) scale(0.100000,-0.100000)"
fill="#000000" stroke="none">
<path d="M975 3054 c-60 -22 -95 -60 -95 -105 0 -57 -15 -86 -58 -113 -22 -14
-50 -41 -62 -60 -27 -45 -41 -53 -121 -65 -73 -12 -106 -33 -134 -85 -17 -32
-39 -45 -165 -107 -160 -78 -242 -139 -271 -203 -25 -55 -24 -76 6 -121 22
-31 24 -40 13 -53 -18 -21 -18 -316 0 -334 6 -6 12 -20 12 -30 0 -10 4 -26 9
-36 5 -9 14 -28 20 -42 6 -14 15 -32 20 -40 5 -8 14 -27 21 -42 24 -51 154
-171 189 -173 9 -1 28 -2 44 -3 20 -2 27 -7 27 -22 0 -22 35 -44 57 -36 14 6
57 -4 160 -35 18 -6 38 -7 44 -4 11 8 53 16 84 17 33 2 119 -26 132 -42 10
-13 14 -12 32 4 21 19 21 19 46 -8 29 -31 31 -48 10 -66 -9 -7 -13 -21 -10
-31 8 -25 -7 -24 -23 2 -18 28 -42 8 -42 -36 0 -39 27 -67 58 -58 12 3 22 1
22 -4 0 -15 -91 -83 -102 -77 -14 9 -38 -16 -38 -38 0 -11 16 -36 35 -55 l35
-35 26 21 c15 12 30 21 34 21 4 0 9 -72 12 -160 4 -150 6 -162 28 -185 12 -13
35 -27 51 -30 15 -4 33 -13 40 -21 6 -8 17 -14 25 -14 28 0 25 -24 -11 -78
-21 -31 -45 -66 -55 -77 -31 -35 -33 -59 -6 -88 14 -15 36 -27 50 -27 28 0 56
32 50 58 -4 17 43 93 61 99 12 4 41 -76 52 -142 9 -47 8 -133 -2 -193 -5 -31
-3 -49 9 -67 40 -61 92 -3 81 90 -7 50 -6 54 24 81 32 29 51 76 51 132 0 25 5
35 24 41 12 5 33 27 46 48 l22 38 29 -80 c16 -44 29 -85 29 -91 0 -10 21 -24
34 -24 2 0 1 11 -2 25 -2 14 -9 25 -14 25 -5 0 -7 4 -3 9 3 5 1 12 -4 15 -5 3
-19 38 -31 78 -12 40 -26 80 -31 89 -27 55 -37 89 -26 89 15 0 62 -94 53 -108
-3 -5 1 -23 9 -38 8 -16 15 -36 15 -45 0 -9 12 -42 26 -73 31 -68 27 -92 -11
-74 -17 8 -28 24 -36 52 -24 92 -33 116 -39 106 -12 -19 29 -153 51 -172 25
-21 50 -23 67 -6 17 17 15 43 -9 90 -23 45 -50 133 -50 162 0 26 -47 116 -64
123 -8 3 -15 18 -15 34 0 16 -13 55 -30 87 -27 54 -29 64 -24 133 3 41 7 93 8
117 0 23 4 42 7 42 14 0 29 -55 29 -103 0 -67 25 -117 70 -139 19 -9 41 -15
47 -13 7 2 25 -7 41 -20 16 -14 62 -40 103 -60 60 -29 85 -35 137 -35 37 0 75
6 93 15 19 11 35 13 47 7 9 -5 26 -6 37 -1 32 12 98 10 125 -6 35 -20 64 -18
85 5 15 16 16 24 7 43 -6 12 -13 54 -15 92 -3 39 -10 100 -17 137 -10 57 -8
87 9 208 12 78 21 179 21 224 l0 83 95 -1 95 -1 0 -30 c0 -28 -40 -215 -95
-445 -29 -125 -31 -152 -7 -172 30 -28 433 -178 476 -178 8 0 33 16 56 35 23
19 47 35 54 35 15 0 58 47 73 80 7 14 30 99 53 190 64 249 66 258 75 238 4
-10 2 -39 -4 -65 -41 -184 -62 -292 -76 -381 -17 -116 -26 -142 -84 -238 -53
-87 -54 -120 -4 -175 20 -22 49 -47 65 -55 16 -8 35 -31 43 -52 34 -80 118
-139 204 -141 75 -2 101 16 101 73 0 36 -8 54 -49 109 -53 73 -95 167 -106
237 -8 57 21 131 71 176 21 19 34 41 34 56 0 13 11 67 25 119 14 51 35 137 46
189 11 52 27 114 35 138 29 88 16 128 -107 320 -20 31 -40 75 -43 97 -7 40 -7
40 51 77 32 21 63 38 68 38 10 0 70 67 89 97 4 7 1 23 -6 35 -7 13 -15 79 -19
148 -7 119 -24 287 -35 339 -3 13 -34 54 -70 91 -54 56 -134 168 -134 188 0 2
-10 25 -22 49 l-22 44 22 62 c12 34 22 71 22 83 0 28 -27 83 -58 117 -23 24
-33 27 -89 27 -70 0 -195 -23 -255 -47 -79 -32 -136 -146 -147 -297 -4 -59
-10 -91 -19 -94 -45 -15 -108 -101 -137 -187 -35 -105 -76 -304 -76 -367 1
-77 15 -152 36 -182 8 -11 15 -23 15 -27 0 -3 -28 -9 -61 -13 -34 -3 -67 -10
-74 -16 -6 -5 -57 -18 -113 -29 -116 -23 -176 -47 -212 -85 -22 -25 -26 -38
-30 -128 l-5 -100 -56 -18 c-31 -9 -75 -20 -98 -23 l-41 -5 0 43 c0 40 -4 48
-44 81 -42 35 -44 39 -48 99 -5 82 -17 95 -82 95 -45 0 -56 -4 -81 -30 -16
-17 -32 -30 -36 -30 -4 0 -10 18 -14 40 -7 43 -13 49 -64 67 -24 8 -40 9 -57
1 -17 -8 -31 -8 -47 -1 -32 16 -101 33 -129 33 -33 0 -98 68 -98 102 0 24 5
27 57 36 35 6 67 6 81 1 39 -15 76 -10 112 14 38 25 106 33 128 15 20 -17 100
-12 130 8 15 10 43 33 62 51 19 18 53 38 75 44 107 27 135 50 135 109 0 42
-44 100 -75 100 -9 0 -50 -11 -91 -25 -45 -15 -85 -23 -99 -19 -18 4 -37 -2
-69 -23 -24 -16 -68 -35 -97 -41 -128 -28 -199 -42 -209 -42 -6 0 -24 21 -40
47 -25 39 -30 57 -30 109 0 34 7 81 16 105 9 27 14 69 12 110 -3 76 17 119 55
119 13 0 34 11 47 25 22 24 23 28 11 68 -6 23 -19 80 -27 126 -8 47 -20 96
-27 109 -15 31 -108 96 -158 111 -49 15 -125 13 -174 -5z m243 -58 c34 -21 66
-45 71 -55 6 -10 15 -49 21 -87 6 -38 18 -92 27 -121 20 -61 12 -77 -42 -87
-50 -10 -74 -60 -67 -143 3 -42 -1 -77 -13 -112 -31 -94 -20 -178 33 -248 28
-38 42 -40 140 -19 37 8 92 19 123 25 31 7 71 23 90 37 22 16 44 24 64 22 17
-1 67 10 113 26 l83 28 25 -23 c17 -16 24 -33 24 -61 0 -35 -4 -41 -34 -53
-19 -8 -55 -19 -81 -25 -31 -7 -59 -22 -83 -46 -20 -20 -47 -43 -59 -51 -32
-21 -108 -20 -133 2 -11 10 -20 13 -20 7 0 -7 -16 -12 -37 -12 -24 0 -48 -9
-70 -26 -30 -22 -40 -25 -71 -19 -21 5 -73 9 -118 9 -75 1 -81 0 -79 -19 1
-11 3 -35 4 -53 2 -46 72 -122 114 -122 32 0 99 -16 132 -32 13 -6 30 -5 48 1
63 24 109 -9 104 -76 -3 -44 35 -43 76 2 30 33 38 36 77 33 38 -3 46 -7 54
-31 7 -18 6 -41 -1 -68 -11 -43 -16 -37 67 -99 22 -16 25 -25 23 -75 l-2 -57
47 6 c26 4 82 16 125 28 l77 22 0 102 c0 149 15 164 210 208 63 14 133 33 155
41 22 8 68 14 103 15 l64 0 -36 41 c-65 77 -74 198 -27 389 39 159 60 222 72
215 5 -4 7 0 4 7 -7 21 47 92 82 107 37 16 43 33 43 127 0 48 4 75 14 83 7 6
17 30 20 54 9 53 47 112 87 132 53 28 180 55 255 55 68 0 74 -2 98 -30 25 -31
42 -88 33 -112 -3 -7 -6 2 -6 20 -1 28 -4 32 -19 27 -20 -6 -69 15 -84 37 -8
10 -11 10 -15 0 -2 -6 -10 -9 -16 -6 -8 5 -9 3 -2 -4 14 -15 105 -53 105 -44
0 4 5 0 10 -8 6 -8 8 -28 5 -45 -4 -24 -3 -26 4 -10 5 11 10 15 10 8 2 -20
-11 -43 -20 -37 -5 3 -6 -2 -3 -10 3 -8 1 -23 -5 -34 -10 -19 5 -61 56 -157 9
-16 23 -43 31 -58 8 -16 43 -57 77 -92 71 -71 85 -93 84 -127 -1 -13 4 -57 11
-98 6 -41 14 -129 17 -195 3 -75 11 -131 20 -148 13 -27 13 -30 -19 -67 -18
-21 -45 -43 -60 -50 -14 -6 -50 -27 -79 -46 -29 -18 -57 -35 -63 -37 -5 -2 -3
-14 7 -27 9 -14 17 -36 17 -50 0 -14 12 -42 26 -61 14 -19 37 -56 51 -84 14
-27 39 -69 54 -92 33 -47 37 -89 15 -155 -8 -24 -24 -86 -35 -138 -11 -52 -32
-138 -46 -189 -14 -52 -25 -105 -25 -118 0 -13 -11 -30 -27 -40 -34 -22 -83
-130 -83 -182 0 -48 55 -196 86 -231 43 -49 74 -103 74 -131 0 -26 -3 -29 -35
-30 -19 -1 -50 -2 -67 -3 -18 -1 -50 7 -71 19 -42 22 -97 88 -97 117 0 11 -14
26 -32 36 -17 9 -47 31 -67 48 -45 41 -46 84 -3 152 46 72 71 143 87 254 9 56
31 173 50 259 19 87 35 165 35 174 0 23 -39 77 -51 70 -5 -4 -9 -17 -9 -29 0
-19 -85 -372 -106 -439 -7 -21 -59 -77 -73 -77 -5 0 -28 -16 -50 -34 l-42 -35
-67 26 c-37 14 -81 29 -99 33 -25 6 -164 59 -291 111 -20 8 -22 14 -18 47 7
46 24 119 43 192 19 71 93 424 89 427 -2 2 -27 -1 -56 -7 -29 -5 -83 -7 -121
-4 l-69 7 0 -93 c0 -103 -20 -276 -30 -260 -10 17 -2 -252 10 -290 13 -45 13
-97 0 -105 -6 -4 -1 -14 12 -24 l22 -18 -22 -7 c-12 -4 -33 -1 -51 8 -33 18
-113 21 -140 6 -14 -7 -24 -4 -40 11 -15 14 -21 16 -21 6 0 -22 -46 -37 -113
-37 -51 0 -76 7 -137 36 -41 19 -84 44 -95 53 -11 10 -37 21 -57 25 -64 12
-81 34 -86 112 -4 77 -23 128 -53 145 -12 6 -18 17 -15 25 3 9 1 12 -4 9 -5
-3 -10 -39 -9 -78 1 -40 -1 -106 -3 -147 -3 -66 0 -82 25 -134 16 -32 31 -75
33 -95 3 -27 -3 -18 -24 39 -16 41 -34 76 -41 78 -6 2 -9 8 -6 13 4 5 -1 6 -9
3 -8 -3 -18 -20 -22 -37 -6 -27 -8 -29 -14 -12 -5 16 -8 13 -13 -14 -4 -19 -7
-44 -7 -58 0 -14 -4 -21 -10 -18 -5 3 -10 1 -10 -6 0 -10 -3 -10 -12 -1 -8 8
-15 9 -25 1 -9 -8 -17 -8 -26 0 -11 8 -26 -11 -72 -92 -33 -56 -68 -117 -78
-134 -10 -18 -15 -33 -9 -33 5 0 34 40 63 90 29 49 54 88 56 86 2 -2 5 -12 8
-22 2 -11 13 -49 23 -85 34 -114 34 -116 22 -97 -5 9 -19 46 -31 82 -20 67
-34 80 -47 48 -18 -42 -68 -111 -81 -112 -11 0 -10 -4 3 -19 17 -19 17 -20 -2
-30 -24 -13 -49 -5 -62 19 -7 13 1 30 33 73 23 31 51 73 62 94 11 21 24 41 29
44 14 11 -4 29 -29 29 -13 0 -37 12 -54 26 -17 14 -31 23 -31 19 0 -4 -7 -2
-15 5 -8 7 -15 9 -15 5 0 -23 -27 20 -30 47 -6 60 -4 252 3 296 8 46 -7 57
-37 27 -8 -8 -19 -15 -25 -15 -6 0 -16 -8 -22 -19 -12 -18 -13 -17 -41 7 -33
29 -38 63 -9 55 23 -6 61 13 61 30 0 7 15 19 33 27 26 12 33 22 35 50 1 19 6
42 9 50 4 8 7 45 8 81 0 62 -1 65 -21 61 -12 -2 -25 1 -28 7 -4 7 -1 9 7 5 15
-5 34 13 24 22 -3 3 -26 7 -51 10 -42 5 -46 3 -46 -16 0 -12 -4 -19 -9 -16 -5
3 -7 15 -4 26 6 21 -20 29 -32 11 -3 -6 -22 -4 -47 5 -28 10 -59 12 -92 8 -67
-8 -81 -7 -141 5 -27 6 -74 14 -103 17 -52 7 -53 7 -47 35 6 28 5 29 -37 31
-24 1 -51 2 -61 1 -10 0 -16 6 -13 12 2 7 -17 22 -45 34 -27 13 -49 29 -49 36
0 7 -5 15 -11 17 -6 2 -12 23 -15 46 -2 24 -8 51 -14 60 -8 13 -9 4 -4 -30 8
-58 -1 -63 -16 -8 -6 22 -16 40 -23 40 -7 0 -4 5 6 11 16 9 16 12 2 32 -8 12
-21 22 -27 22 -6 0 -13 6 -15 13 -8 21 25 13 41 -10 17 -24 20 -11 6 32 -5 15
-8 18 -9 8 -1 -23 -36 -12 -49 15 -32 69 -40 281 -12 339 11 24 10 30 -14 58
-14 17 -26 40 -26 51 0 34 38 97 77 126 21 15 44 33 51 40 20 19 258 134 280
136 15 1 27 15 41 48 24 58 54 79 119 83 74 6 120 31 139 78 12 30 27 45 63
63 49 25 60 45 60 119 1 67 57 97 176 93 73 -3 86 -7 142 -41z m-1055 -1275
c3 -14 1 -18 -9 -14 -15 6 -18 16 -7 26 9 10 10 9 16 -12z m857 -491 c0 -5 -4
-10 -10 -10 -5 0 -10 5 -10 10 0 6 5 10 10 10 6 0 10 -4 10 -10z m-47 -54 c9
3 22 2 29 -2 8 -5 3 -10 -17 -15 -33 -9 -45 -4 -45 19 0 13 2 14 8 4 5 -7 16
-10 25 -6z m469 -453 c6 -16 24 -64 39 -108 16 -44 34 -79 40 -77 7 2 10 -5 7
-16 -3 -11 -1 -27 4 -36 6 -11 5 -16 -4 -16 -7 0 -19 -12 -25 -27 -7 -16 -26
-37 -41 -47 -19 -12 -28 -26 -25 -37 3 -9 0 -20 -5 -23 -6 -4 -8 3 -5 15 10
39 -18 16 -33 -26 -15 -44 -12 -58 6 -26 17 33 33 26 25 -11 -9 -41 -26 -68
-42 -68 -23 0 -35 -40 -28 -98 5 -44 3 -62 -9 -77 -16 -20 -16 -20 -32 0 -11
14 -13 30 -9 55 10 50 11 150 3 188 -4 18 -4 31 1 28 5 -3 11 -19 15 -36 6
-35 29 -48 51 -30 21 17 12 24 -13 11 -23 -12 -26 -8 -37 69 -4 25 -11 50 -15
55 -12 15 -41 137 -35 144 9 9 24 -21 18 -36 -3 -7 0 -13 7 -13 8 0 10 -8 6
-23 -4 -16 1 -31 14 -44 10 -11 20 -36 23 -54 2 -19 4 1 4 44 0 63 -3 77 -16
78 -13 1 -12 2 2 6 10 3 17 15 18 31 0 24 1 25 9 7 8 -19 9 -18 9 4 1 13 4 22
7 19 5 -6 -10 -177 -23 -245 -3 -18 -1 -33 3 -33 5 0 10 17 12 37 1 20 6 39
10 43 4 3 8 46 10 95 1 50 5 97 9 105 3 8 6 32 5 53 0 34 2 37 15 25 14 -12
15 -11 5 9 -19 34 -15 113 5 113 2 0 8 -12 15 -27z m-55 -85 c-2 -13 -4 -3 -4
22 0 25 2 35 4 23 2 -13 2 -33 0 -45z m-17 -52 c0 -28 -16 -36 -71 -36 -57 0
-52 44 6 53 62 9 65 8 65 -17z"/>
<path d="M1056 3004 c-3 -8 -10 -12 -16 -9 -5 3 -10 1 -10 -5 0 -6 -4 -9 -9
-6 -5 3 -15 -2 -22 -11 -12 -15 -12 -16 4 -10 10 4 22 7 26 7 5 0 20 11 35 25
17 16 22 25 13 25 -8 0 -18 -7 -21 -16z"/>
<path d="M976 2989 c-8 -12 -21 -19 -28 -16 -8 3 -14 -2 -14 -13 0 -10 3 -17
7 -14 4 2 14 1 23 -2 13 -5 14 -9 5 -21 -7 -7 -18 -12 -25 -9 -13 5 -13 -19 1
-31 4 -4 5 -2 0 6 -7 11 -2 13 26 8 19 -3 28 -3 22 0 -22 8 -14 33 10 33 18 0
19 -2 7 -10 -9 -6 -10 -10 -3 -10 6 0 15 5 19 12 5 8 14 -2 25 -28 13 -28 17
-31 13 -11 -4 17 -2 27 6 27 6 0 9 -4 6 -8 -2 -4 4 -8 14 -8 10 0 18 4 17 9
-1 5 10 10 24 11 20 1 25 -2 21 -14 -3 -8 4 -4 16 10 12 14 21 20 22 15 0 -12
50 -15 50 -3 0 4 7 5 15 2 8 -4 15 -1 15 5 0 13 -20 14 -40 1 -9 -5 -19 -5
-25 0 -7 6 -24 6 -43 1 -17 -5 -32 -7 -35 -5 -2 3 -14 7 -27 9 -19 4 -20 2 -8
-12 11 -14 8 -14 -19 2 -18 10 -29 23 -26 29 3 6 0 5 -8 -1 -18 -17 -56 -16
-62 1 -3 7 1 23 9 35 8 11 13 21 10 21 -3 0 -12 -10 -20 -21z"/>
<path d="M1150 3000 c8 -5 20 -10 25 -10 6 0 3 5 -5 10 -8 5 -19 10 -25 10 -5
0 -3 -5 5 -10z"/>
<path d="M1074 2989 c-4 -7 -3 -9 4 -5 6 3 16 -2 22 -11 10 -17 11 -17 8 1 -4
23 -23 32 -34 15z"/>
<path d="M1130 2980 c-9 -6 -10 -10 -3 -10 6 0 15 5 18 10 8 12 4 12 -15 0z"/>
<path d="M1166 2966 c4 -10 18 -16 37 -16 32 0 33 8 1 13 -10 1 -25 6 -31 10
-9 6 -11 3 -7 -7z"/>
<path d="M1066 2958 c3 -4 9 -8 15 -8 5 0 9 4 9 8 0 5 -7 9 -15 9 -8 0 -12 -4
-9 -9z"/>
<path d="M1130 2950 c0 -5 7 -7 15 -4 8 4 15 8 15 10 0 2 -7 4 -15 4 -8 0 -15
-4 -15 -10z"/>
<path d="M2875 2930 c-3 -6 1 -7 9 -4 18 7 21 14 7 14 -6 0 -13 -4 -16 -10z"/>
<path d="M2835 2920 c-3 -5 -2 -10 4 -10 5 0 13 5 16 10 3 6 2 10 -4 10 -5 0
-13 -4 -16 -10z"/>
<path d="M2910 2926 c0 -2 7 -7 16 -10 8 -3 12 -2 9 4 -6 10 -25 14 -25 6z"/>
<path d="M1249 2908 c-5 -18 -6 -38 -1 -34 7 8 12 36 6 36 -2 0 -4 -1 -5 -2z"/>
<path d="M2812 2877 c-27 -28 -28 -37 -4 -37 46 0 185 -144 149 -155 -36 -11
-107 -13 -113 -4 -3 6 -13 8 -21 5 -8 -4 -11 -1 -7 5 3 6 18 8 33 5 25 -6 25
-6 7 9 -23 17 -42 19 -51 5 -10 -17 -21 -11 -34 16 -6 15 -14 24 -18 21 -3 -4
0 -13 7 -22 7 -8 8 -15 3 -15 -6 0 -8 -12 -5 -26 2 -14 8 -21 11 -15 4 5 11
-6 17 -25 10 -30 9 -34 -7 -34 -11 0 -19 -4 -19 -10 0 -27 73 2 88 35 8 18 21
24 59 27 55 5 60 3 45 -15 -7 -8 -8 -24 -3 -43 7 -28 8 -28 15 -6 4 12 20 36
36 53 28 31 45 82 34 101 -7 11 13 28 34 28 6 0 12 -9 12 -20 0 -11 -6 -20
-12 -20 -9 0 -8 -4 2 -10 13 -9 11 -14 -11 -33 -14 -13 -24 -28 -21 -35 2 -7
-1 -12 -8 -12 -6 0 -8 -5 -5 -10 3 -6 -1 -13 -9 -16 -9 -3 -13 -10 -10 -15 3
-5 12 -3 19 3 30 27 43 37 47 35 2 -1 -3 4 -11 10 -17 15 -8 28 14 20 36 -14
-3 -82 -51 -90 -12 -1 -29 -10 -38 -20 -19 -19 -92 -41 -111 -33 -8 3 -15 0
-17 -6 -3 -7 -20 -8 -51 -4 -41 6 -47 10 -47 32 0 13 -4 24 -9 24 -14 0 -21
-41 -10 -62 7 -12 5 -26 -4 -45 -8 -16 -18 -39 -22 -53 -12 -42 11 -10 26 35
12 38 13 39 19 15 4 -14 3 -33 -2 -42 -4 -9 -8 -25 -7 -35 0 -13 4 -9 13 11 8
17 16 24 20 18 7 -11 -13 -52 -25 -52 -4 0 -14 -11 -23 -25 -14 -21 -14 -24
-1 -19 8 4 15 9 15 13 1 3 11 18 23 33 l22 27 -3 -49 c-2 -28 -8 -48 -12 -45
-4 3 -17 -11 -29 -30 -11 -20 -27 -38 -36 -41 -8 -4 -15 -10 -15 -16 0 -17 54
32 67 60 7 16 12 20 13 11 0 -18 -17 -114 -26 -141 -3 -10 -1 -18 5 -18 5 0
12 12 14 28 3 15 4 -9 2 -53 -1 -49 0 -64 4 -40 l7 40 7 -57 c5 -32 13 -60 18
-64 6 -3 8 5 4 20 -3 14 -7 38 -10 52 -3 15 -8 49 -11 78 -3 28 -8 54 -9 57
-2 3 1 37 7 75 6 38 11 79 12 92 2 33 20 27 44 -17 21 -36 48 -58 60 -46 3 2
-3 7 -12 11 -9 3 -16 11 -16 16 0 6 -19 30 -43 54 -24 24 -48 60 -54 79 -12
39 -12 39 56 35 21 -1 31 2 27 9 -5 7 -1 8 9 5 8 -4 23 0 32 7 12 10 15 10 9
2 -4 -7 -2 -13 3 -13 6 0 11 5 11 10 0 6 5 10 11 10 5 0 8 -4 5 -9 -4 -5 5 -4
18 2 13 7 22 15 20 18 -4 7 40 39 53 39 4 0 1 -5 -7 -10 -12 -8 -10 -10 9 -10
13 0 21 3 18 7 -4 3 -2 12 4 19 8 10 15 11 30 1 27 -17 24 -30 -3 -17 -21 10
-21 10 -5 -3 22 -18 22 -30 -3 -52 -11 -10 -17 -22 -14 -26 3 -5 -6 -24 -21
-43 -29 -38 -118 -72 -161 -62 -25 7 -25 6 -10 -10 13 -13 27 -15 62 -10 86
11 127 51 186 181 26 57 38 122 19 111 -20 -13 -45 35 -42 83 2 41 -2 52 -21
65 -20 15 -24 14 -45 -6 -14 -13 -23 -33 -23 -51 0 -29 0 -29 -64 31 -36 33
-74 63 -85 67 -12 3 -21 11 -21 16 0 5 -8 9 -17 9 -15 0 -13 4 7 20 14 11 20
20 14 20 -6 0 -20 -10 -32 -23z m28 -229 c0 -9 -5 -20 -12 -24 -13 -8 -38 22
-38 47 0 15 4 15 25 6 14 -7 25 -20 25 -29z m293 -20 c6 -18 -11 -48 -27 -48
-7 0 -13 8 -13 18 0 19 15 42 27 42 5 0 10 -6 13 -12z"/>
<path d="M965 2869 c-11 -4 -14 -8 -7 -8 8 -1 10 -6 6 -13 -4 -7 1 -5 11 4 22
21 18 29 -10 17z"/>
<path d="M1087 2860 c-9 -11 -12 -20 -7 -20 6 0 13 7 17 15 5 14 8 14 27 -2
15 -13 17 -13 8 -2 -6 9 -9 19 -5 22 3 4 0 7 -8 7 -8 0 -22 -9 -32 -20z"/>
<path d="M1205 2870 c-3 -5 -3 -21 1 -35 5 -22 3 -26 -12 -23 -11 2 -22 8 -26
13 -5 6 -8 5 -8 -3 0 -7 -4 -11 -9 -8 -5 4 -21 2 -35 -4 -21 -8 -30 -6 -42 9
-13 15 -26 18 -60 14 -29 -3 -51 1 -68 13 -22 14 -29 14 -42 3 -9 -7 -14 -22
-11 -35 3 -20 1 -22 -14 -14 -10 6 -24 10 -31 9 -7 0 -3 -5 10 -11 12 -6 22
-15 22 -20 0 -5 -4 -7 -10 -3 -5 3 -21 3 -35 -1 -20 -5 -23 -9 -13 -15 10 -7
10 -9 -2 -9 -11 0 -10 -3 4 -11 15 -9 16 -13 5 -20 -8 -5 -9 -9 -3 -9 6 0 18
8 25 17 8 10 9 14 2 10 -6 -4 -14 -3 -18 3 -3 5 2 10 12 10 15 0 16 2 3 10
-13 8 -12 10 3 10 10 0 22 -11 27 -26 12 -32 12 -37 0 -29 -6 4 -7 -1 -3 -12
6 -16 5 -16 -10 -4 -13 11 -17 11 -17 1 0 -8 -3 -10 -7 -7 -3 4 -12 2 -18 -3
-9 -8 -15 -3 -20 17 -5 16 -7 35 -6 43 1 11 -2 10 -9 -3 -7 -11 -8 -30 -4 -50
4 -18 8 -34 9 -37 1 -3 4 -14 7 -25 4 -11 9 -36 12 -55 6 -39 42 -126 56 -135
4 -3 12 -20 16 -37 3 -18 11 -41 17 -53 5 -11 13 -27 17 -35 4 -8 18 -17 31
-18 13 -2 35 -13 49 -25 l24 -22 -16 25 c-8 14 -25 26 -37 28 -12 2 -31 18
-42 35 -27 45 -24 55 9 24 15 -15 32 -27 37 -27 5 0 17 -8 27 -17 15 -14 19
-14 16 -3 -2 9 4 14 14 14 10 -1 16 1 13 5 -5 9 31 41 45 41 5 0 14 -9 20 -19
15 -29 12 -36 -7 -14 -10 10 -14 13 -9 5 11 -15 -11 -35 -28 -25 -5 3 -6 1 -2
-5 5 -8 0 -12 -14 -12 -11 0 -20 -6 -19 -12 4 -31 -2 -72 -9 -62 -15 23 -58
37 -124 39 -47 2 -70 -1 -75 -9 -11 -18 -68 -46 -93 -46 -12 0 -19 -4 -16 -9
4 -5 -3 -7 -14 -4 -11 3 -20 7 -20 10 0 8 96 46 113 44 9 -1 17 3 17 8 0 6
-10 11 -22 11 -30 0 -117 -42 -118 -58 0 -8 -5 -9 -17 -3 -10 5 -31 14 -46 20
-15 6 -32 21 -37 33 l-9 23 0 -22 c-1 -13 -5 -23 -11 -23 -10 0 -6 19 12 57 6
12 16 20 22 16 6 -3 5 0 -2 8 -11 12 -15 11 -23 -4 -22 -38 -69 -71 -69 -47 0
6 3 10 8 10 4 0 7 11 7 24 0 13 -3 22 -7 19 -5 -2 -8 -11 -8 -19 0 -8 -4 -12
-10 -9 -6 4 -9 -5 -8 -20 2 -21 10 -27 43 -36 22 -6 78 -26 124 -46 97 -39
108 -39 188 15 47 31 65 37 109 37 42 0 58 -5 80 -25 31 -29 74 -114 74 -149
0 -19 4 -22 23 -18 12 3 47 10 79 17 31 6 59 17 62 25 3 8 2 14 -2 13 -4 -1
-29 8 -57 21 -27 13 -59 24 -72 25 -13 0 -21 6 -19 11 2 6 13 9 25 8 12 -2 20
1 17 6 -4 5 3 7 14 4 11 -3 20 -9 20 -14 0 -5 7 -6 15 -2 13 4 12 8 -7 22 -31
21 -38 21 -74 -5 l-30 -22 -23 34 c-22 32 -23 36 -7 52 9 10 16 27 16 36 0 13
6 17 20 13 10 -3 24 1 31 9 6 8 15 11 20 8 5 -3 9 1 9 9 0 8 9 22 19 31 23 21
45 76 30 76 -5 0 -9 11 -9 25 0 14 4 25 8 25 4 0 9 17 9 37 1 35 0 36 -13 18
-8 -10 -14 -24 -14 -31 0 -13 -27 -44 -38 -44 -12 0 -107 82 -105 91 2 4 -6
10 -16 14 -23 7 -45 57 -36 83 5 17 2 19 -14 15 -37 -10 -71 100 -35 114 25 9
38 -12 18 -31 -13 -14 -14 -20 -4 -29 10 -9 11 -9 6 1 -4 6 -2 12 3 12 6 0 11
-6 11 -12 0 -9 3 -8 10 2 10 16 12 12 24 -42 4 -19 13 -28 25 -28 11 0 27 -3
35 -6 14 -5 14 -9 4 -23 -11 -14 -11 -14 2 -5 21 15 104 6 90 -11 -13 -16 31
-37 51 -24 11 7 9 9 -8 9 -13 0 -23 5 -23 10 0 6 9 10 20 10 12 0 31 10 43 21
12 12 16 19 9 14 -23 -13 -146 -7 -183 9 -33 14 -71 46 -54 46 4 0 2 7 -5 15
-19 23 -4 34 34 25 19 -4 37 -6 40 -3 7 7 67 -27 62 -36 -3 -4 1 -8 9 -8 8 0
12 5 8 10 -3 5 3 6 16 2 12 -4 21 -2 21 4 0 6 -12 13 -27 17 -49 10 -53 13
-53 38 0 21 4 23 33 21 42 -4 41 -3 27 -20 -9 -11 -9 -15 -1 -15 7 0 9 -4 6
-10 -3 -5 3 -10 15 -10 14 0 19 -4 14 -12 -4 -7 1 -6 12 3 10 9 25 14 32 12 9
-3 12 5 10 29 -2 22 1 32 10 31 20 -5 13 14 -8 20 -11 3 -18 1 -14 -4 3 -5 -2
-9 -11 -9 -8 0 -20 12 -25 26 -13 33 -13 37 2 28 7 -4 8 -3 4 4 -9 14 -13 15
-21 2z m-277 -55 c0 -14 -2 -25 -4 -25 -9 0 -24 42 -19 50 10 16 23 2 23 -25z
m32 -6 c0 -5 -4 -9 -10 -9 -5 0 -10 7 -10 16 0 8 5 12 10 9 6 -3 10 -10 10
-16z m90 7 c-7 -7 -14 -6 -21 1 -9 9 -7 12 9 10 14 -1 18 -5 12 -11z m-20 -21
c0 5 7 0 15 -11 14 -19 14 -18 15 3 0 16 4 21 15 17 8 -4 15 -15 15 -26 0 -18
-5 -20 -31 -14 -17 3 -42 6 -55 6 -17 0 -24 6 -24 18 0 28 11 34 32 15 10 -9
18 -12 18 -8z m210 -19 c0 -30 -15 -42 -24 -20 -10 27 -7 44 9 44 9 0 15 -9
15 -24z m-340 -6 c0 -5 -5 -10 -11 -10 -5 0 -7 5 -4 10 3 6 8 10 11 10 2 0 4
-4 4 -10z m100 -14 c0 -2 -7 -6 -15 -10 -8 -3 -15 -1 -15 4 0 6 7 10 15 10 8
0 15 -2 15 -4z m-43 -121 c23 -47 28 -65 18 -65 -8 0 -19 9 -25 21 -7 11 -14
18 -17 15 -7 -6 13 -38 51 -81 14 -16 26 -33 26 -37 0 -5 7 -8 16 -8 9 0 22
-7 28 -15 8 -10 15 -12 26 -5 13 8 12 10 -2 10 -10 0 -18 4 -18 9 0 5 -10 11
-22 13 -17 2 -23 9 -22 26 1 15 -4 22 -17 22 -10 0 -20 4 -24 9 -14 24 40 3
62 -24 14 -16 29 -29 32 -29 14 3 71 -57 77 -80 5 -21 3 -26 -14 -26 -11 0
-23 7 -26 16 -4 9 -13 14 -21 10 -19 -7 -47 3 -40 15 3 4 -7 16 -22 25 -41 26
-66 56 -90 111 -43 98 -50 133 -25 133 11 -1 29 -25 49 -65z m-105 41 c5 4 4
-4 -3 -17 -11 -22 -11 -23 5 -10 16 13 17 13 14 -5 -1 -10 2 -18 8 -17 7 1 10
-6 7 -17 -3 -11 -9 -17 -14 -14 -18 11 -9 -9 13 -27 23 -21 39 -26 20 -7 -7 7
-12 16 -12 22 0 5 7 1 15 -10 8 -10 15 -29 15 -41 0 -13 5 -23 10 -23 6 0 10
-9 10 -20 0 -11 4 -19 9 -17 5 1 17 -7 26 -18 9 -11 13 -14 9 -6 -4 8 9 2 29
-13 20 -16 34 -32 31 -37 -3 -5 -10 -6 -16 -3 -7 4 -8 2 -4 -5 6 -9 11 -9 22
-1 7 7 19 10 25 8 7 -2 -4 -17 -25 -33 -26 -20 -40 -25 -48 -17 -6 6 -16 8
-22 6 -22 -8 -147 161 -146 198 1 7 10 -5 20 -26 11 -22 24 -42 28 -45 4 -4
20 -23 35 -43 15 -21 33 -38 39 -38 6 0 4 8 -5 18 -13 14 -14 21 -5 30 9 9 9
12 0 12 -7 0 -12 -5 -12 -11 0 -19 -20 1 -40 40 -10 21 -16 41 -13 45 4 3 2 6
-4 6 -13 0 -47 69 -45 92 0 10 -4 20 -9 24 -6 3 -5 11 3 21 8 10 14 11 16 4 2
-6 8 -8 14 -5z m334 -271 c-3 -8 -11 -15 -18 -14 -10 0 -10 2 -1 6 9 3 10 9 1
22 -6 11 -8 27 -3 37 6 17 8 16 17 -9 5 -15 7 -34 4 -42z m-31 -35 c-3 -5 -14
-10 -23 -9 -14 0 -13 2 3 9 27 11 27 11 20 0z m6 -230 l32 0 -24 -26 -24 -27
33 17 c17 9 32 14 32 12 0 -3 -13 -12 -30 -21 -16 -9 -30 -13 -30 -10 0 3 -9
1 -19 -5 -14 -7 -22 -7 -27 2 -4 7 -3 8 4 4 17 -11 15 20 -3 38 -22 22 -20 39
4 26 11 -5 34 -10 52 -10z m79 -34 c0 -2 -7 -7 -16 -10 -8 -3 -12 -2 -9 4 6
10 25 14 25 6z"/>
<path d="M1100 2440 c0 -5 5 -10 11 -10 5 0 7 5 4 10 -3 6 -8 10 -11 10 -2 0
-4 -4 -4 -10z"/>
<path d="M1060 2430 c0 -5 5 -10 10 -10 6 0 10 5 10 10 0 6 -4 10 -10 10 -5 0
-10 -4 -10 -10z"/>
<path d="M841 2614 c0 -11 3 -14 6 -6 3 7 2 16 -1 19 -3 4 -6 -2 -5 -13z"/>
<path d="M893 2525 c0 -8 4 -12 9 -9 4 3 8 9 8 15 0 5 -4 9 -8 9 -5 0 -9 -7
-9 -15z"/>
<path d="M993 2414 c0 -16 13 -19 21 -5 3 5 0 11 -7 14 -8 3 -14 -1 -14 -9z"/>
<path d="M3147 2874 c-3 -3 6 -16 21 -29 23 -20 25 -25 13 -39 -8 -9 -21 -14
-29 -11 -12 5 -13 3 -2 -10 12 -15 16 -14 38 8 23 24 23 25 8 56 -15 29 -35
39 -49 25z"/>
<path d="M1159 2853 c-13 -16 -12 -17 4 -4 9 7 17 15 17 17 0 8 -8 3 -21 -13z"/>
<path d="M1273 2855 c0 -8 4 -15 9 -15 4 0 8 4 8 9 0 6 -4 12 -8 15 -5 3 -9
-1 -9 -9z"/>
<path d="M1105 2830 c-3 -5 -1 -10 4 -10 6 0 11 5 11 10 0 6 -2 10 -4 10 -3 0
-8 -4 -11 -10z"/>
<path d="M2816 2773 c-11 -11 -6 -23 8 -23 8 0 17 4 20 9 7 10 -19 23 -28 14z"/>
<path d="M1280 2749 c0 -5 5 -7 10 -4 6 3 10 8 10 11 0 2 -4 4 -10 4 -5 0 -10
-5 -10 -11z"/>
<path d="M3149 2753 c0 -5 -2 -18 -5 -30 -2 -13 0 -23 6 -23 5 0 7 -7 4 -15
-4 -8 -1 -22 6 -30 19 -23 7 -94 -28 -164 -34 -69 -26 -73 13 -6 14 24 32 72
39 107 11 56 11 65 -3 76 -9 8 -10 11 -3 7 14 -7 17 11 2 20 -5 3 -15 16 -21
28 l-12 22 24 -20 c13 -11 27 -24 31 -30 5 -6 8 -6 8 1 0 6 -9 19 -20 29 -16
14 -17 20 -8 27 9 5 6 8 -9 8 -13 0 -23 -3 -24 -7z"/>
<path d="M2920 2731 c0 -5 5 -13 10 -16 6 -3 10 -2 10 4 0 5 -4 13 -10 16 -5
3 -10 2 -10 -4z"/>
<path d="M1230 2716 c0 -2 7 -7 16 -10 8 -3 12 -2 9 4 -6 10 -25 14 -25 6z"/>
<path d="M1030 2706 c0 -2 7 -7 16 -10 8 -3 12 -2 9 4 -6 10 -25 14 -25 6z"/>
<path d="M736 2691 c-3 -5 1 -11 9 -15 9 -3 15 0 15 9 0 16 -16 20 -24 6z"/>
<path d="M1090 2685 c-9 -10 -9 -15 -1 -15 6 0 11 5 11 11 0 6 7 9 15 5 8 -3
15 -1 15 4 0 15 -26 12 -40 -5z"/>
<path d="M714 2660 c2 -19 7 -43 11 -52 4 -10 3 -18 -3 -18 -6 0 -13 8 -17 19
-3 10 -15 27 -27 37 -19 17 -18 16 3 -17 37 -57 50 -75 44 -62 -3 6 -1 14 4
18 13 7 8 65 -7 91 -10 16 -11 14 -8 -16z"/>
<path d="M1170 2680 c0 -6 7 -10 15 -10 8 0 15 2 15 4 0 2 -7 6 -15 10 -8 3
-15 1 -15 -4z"/>
<path d="M1238 2673 c6 -2 18 -2 25 0 6 3 1 5 -13 5 -14 0 -19 -2 -12 -5z"/>
<path d="M570 2655 c0 -3 15 -12 33 -20 l32 -14 -37 2 c-20 1 -34 6 -30 11 3
5 0 6 -6 2 -7 -4 -12 -14 -12 -22 0 -8 -4 -14 -10 -14 -5 0 -10 -4 -10 -9 0
-6 12 -3 28 5 15 7 42 14 59 14 28 0 39 -8 68 -47 52 -71 56 -97 28 -162 -22
-51 -22 -53 -3 -36 11 10 17 22 14 26 -3 5 -1 9 5 9 5 0 14 -8 20 -17 7 -13 9
-5 6 32 -3 57 -15 108 -25 115 -4 3 -19 24 -33 46 -30 48 -76 84 -106 84 -12
0 -21 -2 -21 -5z m180 -241 c0 -8 -5 -12 -10 -9 -6 4 -8 11 -5 16 9 14 15 11
15 -7z"/>
<path d="M748 2644 c-5 -5 3 -44 22 -109 9 -29 9 -29 4 5 -3 19 -7 46 -9 60
-2 14 -4 27 -5 30 -1 3 -2 8 -1 13 1 8 -3 9 -11 1z"/>
<path d="M780 2605 c-11 -13 -10 -14 4 -9 9 3 16 10 16 15 0 13 -6 11 -20 -6z"/>
<path d="M2890 2611 c0 -5 5 -13 10 -16 6 -3 10 -2 10 4 0 5 -4 13 -10 16 -5
3 -10 2 -10 -4z"/>
<path d="M1070 2589 c-16 -30 -8 -31 13 -3 10 13 13 24 8 24 -6 0 -15 -9 -21
-21z"/>
<path d="M2824 2588 c4 -15 -1 -18 -27 -19 -30 -1 -31 -1 -7 -9 19 -6 21 -8 6
-9 -11 -1 -17 -4 -13 -7 7 -8 67 5 67 15 0 4 -7 16 -16 27 -13 16 -15 16 -10
2z"/>
<path d="M590 2583 c0 -12 28 -38 34 -32 2 2 -5 13 -15 23 -11 11 -19 15 -19
9z"/>
<path d="M1100 2579 c0 -4 7 -9 15 -13 8 -3 14 -9 14 -13 -1 -4 1 -16 5 -25 9
-19 36 -25 36 -8 0 6 -6 10 -14 10 -8 0 -18 5 -22 11 -4 8 1 9 17 4 24 -7 24
-7 4 10 -19 16 -19 16 8 10 17 -3 26 -2 23 4 -7 10 -86 20 -86 10z"/>
<path d="M2866 2565 c4 -8 10 -12 15 -9 11 6 2 24 -11 24 -5 0 -7 -7 -4 -15z"/>
<path d="M525 2540 c-4 -12 -2 -27 3 -32 8 -8 9 -4 5 12 -4 16 -3 21 5 16 6
-4 19 -34 28 -67 9 -33 19 -57 22 -55 8 8 -18 91 -38 121 -18 27 -18 27 -25 5z"/>
<path d="M3210 2539 c0 -8 -11 -39 -25 -69 l-25 -55 24 29 c24 28 43 92 32
104 -3 3 -6 -1 -6 -9z"/>
<path d="M800 2493 c0 -21 3 -24 9 -14 5 8 7 20 4 28 -8 21 -13 15 -13 -14z"/>
<path d="M610 2494 c0 -8 5 -12 10 -9 6 3 10 10 10 16 0 5 -4 9 -10 9 -5 0
-10 -7 -10 -16z"/>
<path d="M436 2464 c4 -21 8 -50 9 -64 4 -48 4 -49 33 -44 44 8 51 12 49 33
-2 26 -9 26 -25 1 -10 -16 -16 -18 -30 -9 -12 8 -17 25 -18 62 0 31 -5 52 -13
55 -9 3 -10 -6 -5 -34z"/>
<path d="M637 2482 c-10 -10 -17 -35 -17 -55 0 -40 14 -52 16 -14 2 31 8 60
17 75 12 18 3 15 -16 -6z"/>
<path d="M3219 2436 c-84 -80 -175 -120 -263 -115 -43 3 -53 1 -41 -7 8 -6 11
-14 7 -19 -9 -9 79 2 111 14 21 8 23 6 21 -19 -1 -22 2 -27 13 -23 11 4 11 8
3 13 -15 9 -3 53 13 47 7 -2 20 2 30 11 16 14 17 12 17 -34 0 -63 9 -94 26
-94 12 0 12 5 -1 30 -8 16 -15 37 -14 47 0 10 9 -1 19 -24 21 -47 36 -59 20
-17 -6 14 -8 30 -4 35 3 5 0 9 -5 9 -6 0 -11 7 -11 16 0 8 -4 12 -10 9 -5 -3
-10 -1 -10 4 0 6 4 11 10 11 5 0 7 6 4 13 -3 8 2 14 11 14 14 0 20 -27 17 -77
0 -7 6 -26 14 -41 8 -16 10 -30 5 -33 -5 -4 -7 -16 -3 -28 3 -14 2 -19 -7 -14
-6 4 -9 11 -6 16 8 13 -8 18 -30 9 -13 -5 -15 -8 -5 -8 8 -1 21 -11 29 -23 12
-20 11 -24 -14 -45 -30 -26 -30 -29 0 -35 20 -3 45 -46 45 -78 0 -10 -12 -28
-27 -39 -17 -12 -22 -20 -13 -20 16 0 60 17 48 18 -4 1 0 17 8 37 8 20 11 33
6 30 -22 -13 -22 28 -1 51 23 24 46 32 33 11 -5 -7 -3 -8 5 -3 9 5 10 10 2 18
-7 7 -15 6 -27 -4 -13 -10 -18 -11 -21 -2 -2 7 -12 9 -21 6 -11 -3 -7 4 9 18
14 13 36 41 50 61 13 21 28 38 32 38 5 0 5 5 2 11 -8 12 -55 -28 -55 -47 0
-17 -39 -62 -40 -46 0 7 5 23 12 35 6 12 11 38 11 59 0 20 3 35 8 33 4 -3 5 5
2 17 -3 16 -2 19 5 10 11 -16 30 4 37 38 5 28 25 51 36 44 5 -3 9 2 9 11 0 11
-4 13 -12 8 -7 -4 -16 -8 -20 -8 -5 0 -8 -4 -7 -8 0 -5 -11 -18 -24 -30 -14
-12 -28 -32 -32 -45 -10 -33 -33 -11 -37 36 -3 31 3 43 39 81 l43 45 32 -24
33 -23 -27 30 c-22 22 -25 32 -16 41 7 7 8 12 3 12 -6 -1 -40 -29 -76 -64z
m-11 -181 c-3 -3 -9 2 -12 12 -6 14 -5 15 5 6 7 -7 10 -15 7 -18z m12 -175 c0
-5 -5 -10 -11 -10 -5 0 -7 5 -4 10 3 6 8 10 11 10 2 0 4 -4 4 -10z"/>
<path d="M390 2470 c0 -5 5 -10 10 -10 6 0 10 5 10 10 0 6 -4 10 -10 10 -5 0
-10 -4 -10 -10z"/>
<path d="M484 2467 c10 -7 26 -20 35 -29 8 -10 25 -18 36 -18 17 1 15 5 -15
30 -19 17 -43 30 -55 29 -19 0 -19 -1 -1 -12z"/>
<path d="M667 2453 c3 -17 0 -40 -6 -52 -9 -17 -9 -20 3 -15 18 7 26 60 11 81
-10 13 -11 11 -8 -14z"/>
<path d="M2673 2466 c4 -9 2 -26 -3 -38 -8 -21 -9 -22 -10 -3 -1 11 -4 15 -6
8 -3 -6 2 -26 11 -43 21 -40 12 -52 -9 -13 -8 15 -15 22 -16 16 0 -7 9 -27 20
-45 21 -35 26 -58 12 -58 -9 0 -35 55 -47 98 -4 12 -10 22 -14 22 -12 0 24
-98 48 -130 22 -31 28 -56 11 -45 -6 4 -22 24 -36 46 -13 21 -29 39 -34 39
-12 0 46 -86 68 -101 15 -9 14 -10 -5 -6 -13 3 -23 1 -23 -4 0 -5 6 -9 14 -9
7 0 19 -6 25 -14 9 -11 8 -15 -5 -20 -16 -6 -16 -8 0 -25 15 -16 15 -19 1 -31
-19 -16 -20 -34 -1 -27 11 4 13 1 9 -10 -4 -10 -2 -14 5 -9 16 9 7 409 -9 415
-8 2 -10 -2 -6 -13z m17 -66 c0 -5 -4 -10 -10 -10 -5 0 -10 5 -10 10 0 6 5 10
10 10 6 0 10 -4 10 -10z"/>
<path d="M812 2448 c-7 -9 -6 -17 3 -25 10 -9 13 -7 11 13 -1 28 -1 28 -14 12z"/>
<path d="M2634 2445 c-3 -8 -4 -20 -2 -27 3 -7 7 -1 10 15 6 29 1 36 -8 12z"/>
<path d="M2998 2453 c7 -3 16 -2 19 1 4 3 -2 6 -13 5 -11 0 -14 -3 -6 -6z"/>
<path d="M375 2440 c3 -5 8 -10 11 -10 2 0 4 5 4 10 0 6 -5 10 -11 10 -5 0 -7
-4 -4 -10z"/>
<path d="M285 2430 c3 -5 13 -10 21 -10 20 0 81 -45 121 -89 18 -20 32 -31 33
-25 0 23 -64 94 -103 113 -46 22 -82 28 -72 11z"/>
<path d="M696 2413 c-6 -14 -5 -15 5 -6 7 7 10 15 7 18 -3 3 -9 -2 -12 -12z"/>
<path d="M3136 2423 c-4 -5 -11 -8 -14 -8 -13 -1 -106 -65 -94 -65 18 0 62 22
62 31 0 5 6 6 14 3 7 -3 21 6 30 20 16 25 17 34 2 19z"/>
<path d="M3256 2415 c-3 -9 -6 -22 -5 -28 0 -7 5 -1 10 12 5 13 8 26 5 28 -2
2 -6 -3 -10 -12z"/>
<path d="M852 2380 c1 -23 4 -36 8 -30 6 10 1 70 -6 70 -2 0 -3 -18 -2 -40z"/>
<path d="M3336 2411 c-4 -5 3 -7 14 -4 23 6 26 13 6 13 -8 0 -17 -4 -20 -9z"/>
<path d="M592 2380 c0 -14 2 -19 5 -12 2 6 2 18 0 25 -3 6 -5 1 -5 -13z"/>
<path d="M817 2393 c-4 -3 -7 -15 -7 -26 0 -25 13 -14 15 13 2 22 1 23 -8 13z"/>
<path d="M290 2379 c14 -6 38 -22 54 -37 16 -15 27 -20 24 -12 -6 19 -66 60
-87 59 -9 0 -6 -4 9 -10z"/>
<path d="M565 2377 c-4 -10 -5 -21 -1 -24 10 -10 18 4 13 24 -4 17 -4 17 -12
0z"/>
<path d="M621 2364 c0 -11 3 -14 6 -6 3 7 2 16 -1 19 -3 4 -6 -2 -5 -13z"/>
<path d="M662 2349 c-7 -11 -19 -19 -25 -17 -7 2 -22 -6 -34 -17 l-23 -22 38
-12 c20 -7 51 -10 67 -8 17 3 37 6 45 8 8 1 -5 5 -30 8 -25 4 -50 3 -56 -1 -7
-5 -14 -2 -18 7 -4 12 3 19 24 27 19 6 30 17 30 29 0 24 -2 24 -18 -2z"/>
<path d="M145 2344 l-30 -14 44 5 c63 8 163 -14 181 -39 8 -12 12 -23 10 -25
-3 -2 6 -8 19 -12 18 -7 21 -12 12 -22 -15 -19 19 -18 38 0 8 9 24 12 40 9 14
-3 20 -3 14 0 -7 3 -13 10 -13 16 0 12 -69 91 -84 97 -7 3 -7 0 0 -10 6 -8 16
-34 22 -59 l11 -45 -32 36 c-18 20 -44 43 -58 53 -36 23 -135 29 -174 10z
m272 -66 c-3 -7 -5 -2 -5 12 0 14 2 19 5 13 2 -7 2 -19 0 -25z"/>
<path d="M2595 2350 c3 -5 8 -10 11 -10 2 0 4 5 4 10 0 6 -5 10 -11 10 -5 0
-7 -4 -4 -10z"/>
<path d="M725 2340 c3 -5 8 -10 11 -10 2 0 4 5 4 10 0 6 -5 10 -11 10 -5 0 -7
-4 -4 -10z"/>
<path d="M195 2307 c-46 -18 -95 -47 -95 -55 0 -12 71 -77 106 -97 28 -16 34
-16 95 -1 75 20 106 42 68 50 -68 14 -123 15 -159 2 -37 -13 -50 -12 -50 4 0
4 34 16 75 25 41 10 75 20 75 22 0 7 -132 -9 -157 -18 -16 -6 -23 -5 -23 4 0
7 28 27 62 45 61 31 62 42 3 19z m143 -122 c-56 -20 -132 -30 -124 -16 4 6 1
11 -9 11 -9 0 -14 3 -12 8 3 4 45 8 94 9 84 1 86 1 51 -12z"/>
<path d="M1145 2289 c-14 -17 -23 -34 -20 -37 3 -3 6 -3 8 -1 1 2 12 19 25 37
29 41 22 42 -13 1z"/>
<path d="M309 2301 c11 -7 5 -11 -23 -16 -50 -10 -38 -19 14 -10 34 6 39 9 29
21 -6 8 -17 14 -23 14 -6 0 -5 -4 3 -9z"/>
<path d="M2809 2270 c-2 -25 -1 -65 3 -90 4 -25 9 -63 12 -85 6 -47 30 -118
42 -122 5 -2 7 21 5 49 -3 43 -6 48 -12 28 -4 -14 -8 -20 -9 -15 -1 6 -4 19
-6 30 -9 38 -15 80 -23 165 -6 72 -8 78 -12 40z"/>
<path d="M3352 2290 c0 -14 2 -19 5 -12 2 6 2 18 0 25 -3 6 -5 1 -5 -13z"/>
<path d="M2589 2269 c11 -47 39 -108 40 -87 1 19 -27 97 -40 112 -4 5 -4 -7 0
-25z"/>
<path d="M3260 2265 c-19 -19 -29 -35 -23 -35 6 0 17 10 26 23 l15 22 26 -25
c18 -16 25 -19 21 -8 -4 9 -13 19 -21 22 -7 3 -11 12 -8 21 9 23 1 19 -36 -20z"/>
<path d="M205 2280 c-3 -6 1 -7 9 -4 18 7 21 14 7 14 -6 0 -13 -4 -16 -10z"/>
<path d="M1169 2280 c-3 -20 -4 -25 -13 -40 -7 -12 -6 -13 4 -3 13 12 25 53
15 53 -3 0 -6 -4 -6 -10z"/>
<path d="M1085 2270 c-8 -13 5 -13 25 0 13 8 13 10 -2 10 -9 0 -20 -4 -23 -10z"/>
<path d="M2886 2261 c-15 -16 -15 -19 -1 -24 8 -4 15 -14 15 -23 0 -29 10 -9
15 30 5 40 -3 45 -29 17z m21 -6 c0 -8 -4 -15 -9 -15 -10 0 -11 14 -1 23 9 10
10 9 10 -8z"/>
<path d="M3020 2268 c0 -9 5 -20 10 -23 13 -8 13 5 0 25 -8 13 -10 13 -10 -2z"/>
<path d="M3426 2265 c-3 -8 -1 -15 4 -15 6 0 10 7 10 15 0 8 -2 15 -4 15 -2 0
-6 -7 -10 -15z"/>
<path d="M2942 2253 c-7 -3 9 -16 37 -29 30 -13 51 -30 51 -39 0 -12 -8 -11
-39 9 -43 27 -58 25 -33 -5 9 -11 19 -14 22 -9 4 6 12 -1 20 -15 7 -14 19 -25
26 -25 15 0 37 -36 32 -52 -2 -6 -11 -4 -21 7 -10 9 -26 15 -36 12 -15 -3 -20
2 -25 24 -6 34 -21 38 -29 9 -3 -11 -2 -18 2 -15 8 4 81 -128 81 -147 0 -6 12
-22 27 -36 17 -15 23 -27 16 -29 -8 -3 -5 -11 8 -24 10 -10 19 -22 19 -26 0
-15 -67 -53 -92 -53 -26 0 -112 55 -105 68 3 4 -4 23 -15 42 -12 22 -18 27
-15 13 7 -30 -14 -35 -52 -12 -28 17 -36 29 -32 51 0 4 -5 5 -13 2 -8 -3 -17
-1 -20 4 -3 6 2 13 11 16 14 6 15 9 4 16 -10 5 -23 -2 -42 -23 l-28 -31 6 40
c7 45 13 57 13 26 0 -12 5 -22 10 -22 16 0 11 26 -8 43 -11 10 -26 14 -41 10
-14 -4 -22 -2 -18 3 3 5 -2 10 -11 10 -9 0 -39 4 -66 8 -37 6 -46 5 -40 -5 5
-9 2 -11 -9 -6 -8 3 -18 0 -20 -8 -6 -15 1 -25 17 -25 6 0 4 4 -3 9 -20 13 63
3 114 -14 43 -14 55 -29 30 -39 -9 -3 -14 -2 -11 3 7 11 -18 21 -47 20 -21 -1
-21 -1 -2 -7 11 -4 37 -20 58 -36 27 -21 37 -36 37 -57 0 -23 -5 -29 -21 -29
-36 0 -58 -19 -69 -60 -9 -35 -14 -39 -48 -43 l-37 -4 37 -1 c36 -2 39 1 59
43 12 25 25 42 31 39 5 -3 3 -11 -5 -17 -22 -18 -40 -79 -26 -88 7 -4 8 -13 4
-20 -5 -8 -5 -11 0 -7 9 9 35 -9 35 -23 0 -5 -7 -9 -15 -9 -8 0 -15 -4 -15
-10 0 -5 -9 -10 -20 -10 -18 0 -19 -3 -8 -20 20 -32 1 -35 -51 -7 -27 15 -56
27 -65 27 -9 0 -16 5 -16 11 0 6 -6 9 -14 6 -7 -3 -19 0 -25 6 -6 6 -13 8 -16
5 -3 -2 12 -13 32 -23 21 -10 46 -22 55 -26 54 -27 144 -59 162 -58 20 0 20 1
2 8 -16 6 -12 11 25 30 24 12 37 20 29 18 -8 -2 -21 3 -29 11 -13 12 -16 12
-22 -6 -9 -24 -25 -35 -39 -27 -16 10 4 36 36 50 31 13 74 4 74 -15 0 -5 7
-10 15 -10 8 0 15 -6 15 -14 0 -8 13 -19 29 -24 25 -9 29 -8 24 4 -3 8 0 14 7
14 6 0 14 -9 17 -20 3 -11 9 -18 13 -15 5 3 6 13 3 23 -4 16 2 19 33 20 48 2
67 21 69 69 1 21 3 47 4 58 1 17 13 23 62 34 41 10 63 11 70 4 7 -7 7 -13 0
-17 -14 -9 -14 -63 -1 -71 6 -3 7 1 4 9 -8 20 0 20 20 0 13 -13 16 -13 16 -1
0 26 -30 88 -46 94 -14 5 -12 8 7 19 35 20 47 17 63 -13 14 -26 15 -27 16 -5
0 12 -6 22 -12 22 -7 0 0 12 16 26 25 22 37 25 73 21 25 -2 57 -15 77 -30 18
-15 37 -23 41 -19 5 4 5 2 2 -4 -9 -15 49 -69 58 -55 13 22 -6 47 -63 80 -76
45 -114 53 -164 35 -31 -11 -44 -11 -55 -3 -7 7 -16 9 -20 5 -3 -3 -1 -6 5 -6
7 0 12 -7 12 -15 0 -12 -7 -14 -27 -9 -37 9 -37 9 -7 29 34 22 168 29 204 10
48 -26 115 -57 139 -66 20 -8 22 -7 17 8 -4 9 -1 21 6 26 10 7 9 8 -3 4 -8 -3
-37 1 -65 8 -41 12 -45 15 -26 21 12 3 22 10 22 15 0 5 7 6 15 3 16 -7 45 12
45 29 0 5 -8 3 -18 -6 -10 -10 -23 -17 -28 -17 -5 0 -4 4 1 8 6 4 17 16 25 27
10 13 3 10 -18 -8 -19 -15 -42 -27 -53 -27 -11 0 -18 -4 -14 -9 3 -5 1 -12 -5
-16 -5 -3 -10 2 -11 12 0 14 -2 15 -6 3 -4 -10 -10 -5 -17 17 -6 18 -15 33
-21 34 -5 1 -25 6 -42 10 -45 10 -42 -5 4 -17 67 -17 52 -33 -30 -32 -41 0
-79 -2 -85 -6 -5 -3 -17 -3 -26 0 -14 5 -14 8 2 23 10 9 13 13 8 9 -6 -5 -21
-8 -34 -8 -22 0 -22 -1 -7 -16 18 -18 16 -35 -6 -43 -12 -4 -12 -2 0 12 12 15
11 17 -3 17 -9 0 -16 8 -16 19 0 10 -9 21 -20 24 -11 3 -20 10 -20 16 0 7 10
9 25 5 35 -9 45 -9 83 1 17 4 32 13 32 20 0 8 2 19 5 27 3 8 -7 21 -26 32 -24
14 -30 23 -26 42 2 14 0 27 -4 30 -5 3 -9 10 -9 15 0 5 11 2 25 -7 14 -9 25
-12 25 -6 0 6 -19 21 -41 34 -24 13 -48 36 -55 53 l-13 30 -1 -27 c0 -15 6
-33 13 -40 23 -24 43 -63 42 -83 0 -21 17 -45 33 -45 20 0 32 -26 19 -43 -11
-16 -14 -16 -44 3 -22 13 -35 31 -42 57 -6 21 -17 47 -25 58 -9 11 -16 31 -16
45 0 32 -8 42 -45 60 -39 18 -38 18 -53 13z m117 -198 c29 -25 57 -45 62 -45
6 0 7 -5 4 -10 -4 -6 -16 -8 -28 -4 -12 4 -31 7 -41 8 -13 1 -23 13 -31 35 -6
19 -17 37 -23 39 -13 4 -16 22 -4 22 5 0 32 -20 61 -45z m-456 -2 c-7 -2 -21
-2 -30 0 -10 3 -4 5 12 5 17 0 24 -2 18 -5z m83 -13 c8 0 14 -5 14 -11 0 -12
-40 -2 -55 14 -7 7 -4 8 8 3 10 -3 25 -6 33 -6z m80 -82 c12 -13 13 -18 4 -13
-13 8 -13 7 0 -11 8 -10 19 -22 25 -26 18 -13 -5 -21 -37 -12 -25 7 -32 15
-32 34 0 22 10 50 18 50 2 0 11 -10 22 -22z m124 -83 c0 -16 -27 -32 -37 -22
-3 4 -3 13 0 22 8 20 37 20 37 0z m-57 -2 c4 -3 0 -15 -9 -25 -16 -17 -18 -17
-30 0 -13 16 -13 16 -14 0 0 -10 -5 -18 -12 -18 -6 0 -3 -6 8 -14 17 -14 18
-16 3 -31 -12 -12 -21 -14 -42 -6 -34 13 -34 18 0 53 15 15 22 28 17 28 -6 0
-23 -14 -39 -30 -21 -22 -26 -33 -18 -38 7 -4 11 -21 9 -37 -2 -17 -4 -39 -5
-50 -1 -15 -6 -11 -24 19 -13 21 -22 48 -20 61 8 40 47 77 89 85 53 10 79 11
87 3z m17 -43 c0 -5 -2 -10 -4 -10 -3 0 -8 5 -11 10 -3 6 -1 10 4 10 6 0 11
-4 11 -10z m65 1 c3 -6 -2 -14 -12 -19 -15 -9 -15 -11 -1 -26 14 -13 17 -14
22 -1 3 8 0 15 -6 15 -9 0 -9 3 0 12 10 10 17 7 34 -10 12 -12 17 -22 11 -22
-7 0 -10 -7 -7 -15 4 -8 1 -15 -5 -15 -7 0 -9 -16 -6 -47 4 -47 4 -48 -24 -49
-17 -1 -28 3 -25 10 2 6 5 29 8 52 4 39 3 41 -19 36 -22 -4 -24 -1 -21 24 3
16 7 37 11 47 8 18 30 23 40 8z m509 -16 c11 -8 15 -15 10 -15 -6 0 -19 7 -30
15 -10 8 -14 14 -9 14 6 0 19 -6 29 -14z m-588 -9 c20 -20 17 -36 -5 -36 -23
0 -40 22 -23 28 7 2 10 8 6 13 -8 14 6 11 22 -5z m-21 -56 c3 -5 12 -7 19 -4
8 3 17 0 21 -5 3 -6 10 -9 14 -6 5 2 8 -11 7 -30 0 -19 -5 -35 -9 -35 -5 0 -5
-4 -2 -10 3 -5 1 -10 -4 -10 -6 0 -11 5 -11 10 0 19 -18 10 -23 -11 -11 -43
-32 -13 -34 49 -2 56 6 77 22 52z m-81 -32 c-8 -27 -12 -33 -19 -27 -7 8 7 49
17 49 5 0 6 -10 2 -22z m37 -11 c-1 -4 -1 -14 -1 -23 0 -8 -4 -12 -10 -9 -13
8 -13 48 1 43 6 -2 10 -7 10 -11z"/>
<path d="M2730 1798 c0 -4 6 -8 14 -8 8 0 17 4 20 8 2 4 -4 8 -15 8 -10 0 -19
-4 -19 -8z"/>
<path d="M2675 1740 c3 -5 8 -10 11 -10 2 0 4 5 4 10 0 6 -5 10 -11 10 -5 0
-7 -4 -4 -10z"/>
<path d="M2820 1725 c-17 -21 -8 -48 17 -50 14 -1 19 3 16 12 -3 7 -9 10 -14
7 -5 -3 -5 6 1 20 10 28 0 35 -20 11z"/>
<path d="M420 2224 c0 -4 8 -13 18 -20 14 -11 15 -16 5 -33 -16 -25 -16 -31
-2 -31 5 0 8 3 6 8 -8 13 19 31 34 22 11 -7 9 -14 -10 -34 -19 -20 -27 -23
-38 -14 -11 9 -18 7 -31 -6 -16 -16 -15 -17 11 -11 15 4 27 4 27 0 0 -17 -22
-45 -36 -45 -8 0 -13 -4 -10 -9 3 -5 -1 -14 -8 -20 -10 -8 -16 -9 -21 -1 -3 5
-3 10 2 10 4 0 0 5 -10 11 -9 5 -21 8 -26 4 -5 -3 -12 -2 -15 3 -5 8 17 13 67
16 28 1 39 16 12 16 -8 0 -15 6 -15 13 0 8 -4 7 -10 -3 -5 -8 -10 -10 -10 -3
0 6 -9 9 -20 6 -36 -10 -21 12 27 37 26 14 49 32 51 40 4 12 1 11 -15 -2 -11
-10 -23 -18 -27 -18 -4 0 -21 -9 -37 -21 -16 -11 -36 -18 -44 -16 -7 3 -16 0
-19 -8 -3 -9 8 -16 37 -21 23 -4 34 -9 25 -11 -34 -8 -95 18 -158 68 -39 30
-50 37 -29 16 32 -30 34 -36 22 -53 -7 -10 -13 -23 -13 -28 1 -6 6 -1 13 11
l12 22 50 -31 c27 -17 63 -37 80 -45 16 -8 62 -30 100 -51 l70 -37 17 -75 c9
-41 24 -87 33 -102 8 -14 15 -34 15 -43 0 -12 7 -15 28 -13 15 2 27 9 26 16
-1 6 -2 27 -2 46 -2 33 -19 43 -38 23 -4 -4 -12 -7 -18 -7 -6 0 -3 7 7 14 14
11 17 22 12 50 -8 38 -30 49 -38 19 -3 -10 -4 -7 -3 7 2 27 22 68 29 60 2 -3
12 -32 20 -65 9 -33 14 -44 12 -26 -9 62 -26 111 -37 111 -6 0 -20 -7 -30 -17
-14 -13 -18 -13 -18 -2 0 13 -41 43 -82 61 -25 11 -23 17 33 78 43 48 51 53
60 38 6 -11 16 -15 26 -11 10 4 14 2 10 -4 -4 -6 -1 -16 7 -22 10 -9 15 -8 19
3 4 10 -6 22 -26 35 -18 11 -50 38 -72 60 -36 38 -55 50 -55 35z m123 -374
c-3 -12 -8 -19 -11 -16 -5 6 5 36 12 36 2 0 2 -9 -1 -20z m37 -80 c0 -5 -2
-10 -4 -10 -3 0 -8 5 -11 10 -3 6 -1 10 4 10 6 0 11 -4 11 -10z"/>
<path d="M1820 2220 c0 -5 7 -7 15 -4 8 4 15 8 15 10 0 2 -7 4 -15 4 -8 0 -15
-4 -15 -10z"/>
<path d="M1820 2200 c-30 -15 -61 -25 -69 -22 -9 3 -12 1 -7 -6 4 -7 2 -12 -4
-12 -6 0 -13 7 -16 15 -11 29 -19 15 -16 -27 5 -52 22 -76 22 -30 0 28 3 32
28 33 27 0 76 17 57 19 -11 1 24 30 37 30 4 0 8 -6 8 -14 0 -8 5 -18 10 -21 7
-4 10 6 8 29 -1 20 -2 35 -3 35 0 -1 -25 -14 -55 -29z"/>
<path d="M2736 2213 c-6 -14 -5 -15 5 -6 7 7 10 15 7 18 -3 3 -9 -2 -12 -12z"/>
<path d="M2865 2200 c-8 -35 2 -90 16 -90 6 0 5 9 -1 21 -7 12 -9 37 -5 60 8
46 0 53 -10 9z"/>
<path d="M3345 2209 c2 -12 10 -28 17 -37 11 -13 10 -15 -4 -9 -13 4 -16 1
-13 -13 2 -11 -2 -25 -9 -32 -17 -17 -9 -38 12 -32 14 5 13 2 -2 -10 -11 -9
-27 -16 -35 -16 -13 0 -13 2 -3 9 8 4 14 10 15 13 3 8 -24 38 -34 38 -12 0 2
-62 18 -78 7 -8 11 -17 9 -20 -2 -4 2 -13 10 -20 8 -8 14 -9 15 -2 1 5 2 14 3
19 0 5 5 13 10 18 5 5 6 3 2 -4 -4 -7 -2 -13 4 -13 7 0 10 6 7 13 -2 6 -13 11
-23 9 -15 -2 -14 2 9 23 15 14 23 25 16 25 -6 0 -8 7 -5 16 3 8 2 12 -4 9 -6
-3 -10 -2 -10 4 0 12 52 41 75 41 8 0 15 4 15 10 0 5 -17 8 -37 7 -35 -2 -38
0 -41 26 -2 15 -7 27 -12 27 -5 0 -7 -9 -5 -21z"/>
<path d="M1770 2210 c-12 -8 -11 -10 8 -10 12 0 22 5 22 10 0 13 -11 13 -30 0z"/>
<path d="M3311 2186 c-8 -14 -17 -24 -20 -22 -3 2 -19 -10 -36 -26 l-30 -30
33 16 c18 9 37 14 43 11 5 -4 8 -3 7 2 -1 4 3 18 11 31 7 13 11 28 9 33 -2 6
-10 -1 -17 -15z"/>
<path d="M2606 2150 c15 -27 31 -47 35 -44 5 3 -2 20 -16 38 -14 18 -25 38
-25 44 0 7 -5 12 -11 12 -5 0 2 -22 17 -50z"/>
<path d="M2914 2192 c-6 -4 -8 -16 -4 -27 6 -17 7 -16 12 8 3 15 5 27 4 27 0
0 -6 -4 -12 -8z"/>
<path d="M1634 2171 c4 -5 -4 -11 -16 -13 -34 -4 -38 -54 -6 -63 13 -4 35 -16
50 -26 28 -20 43 -13 27 11 -5 9 -9 10 -9 3 0 -7 -15 -3 -40 10 -37 21 -50 46
-19 39 53 -14 79 -14 79 -1 0 8 -4 19 -8 25 -9 14 -66 29 -58 15z"/>
<path d="M2540 2161 c0 -4 16 -23 36 -42 37 -35 38 -34 15 13 -12 24 -51 46
-51 29z"/>
<path d="M2720 2155 c-7 -9 -11 -18 -8 -20 3 -3 11 1 18 10 7 9 11 18 8 20 -3
3 -11 -1 -18 -10z"/>
<path d="M144 2132 c0 -9 -5 -16 -11 -14 -16 3 -17 -14 -2 -23 6 -5 4 -12 -7
-20 -11 -7 -15 -19 -11 -29 4 -10 3 -15 -3 -11 -18 11 -11 -21 9 -42 11 -11
21 -31 24 -44 2 -13 2 6 0 42 -3 46 0 77 11 104 19 45 19 42 2 48 -8 3 -13 -1
-12 -11z"/>
<path d="M1525 2135 c-22 -7 -33 -13 -25 -14 13 -1 13 -3 0 -12 -12 -9 -12
-10 3 -5 10 3 21 6 23 6 3 0 2 5 -1 10 -3 6 1 10 10 10 9 0 13 -5 10 -10 -4
-6 -1 -18 7 -27 9 -12 9 -15 1 -9 -7 4 -13 2 -13 -3 0 -6 10 -11 23 -12 21 0
21 -1 2 -9 -17 -7 -17 -9 -2 -9 9 -1 26 -10 37 -21 11 -11 20 -16 20 -12 0 5
-9 27 -20 50 -11 22 -20 46 -20 52 0 5 -6 10 -12 10 -9 0 -8 4 2 10 20 13 4
11 -45 -5z m45 -25 c0 -5 -5 -10 -11 -10 -5 0 -7 5 -4 10 3 6 8 10 11 10 2 0
4 -4 4 -10z"/>
<path d="M1834 2143 c10 -11 36 -12 36 -2 0 5 -10 9 -22 9 -12 0 -18 -3 -14
-7z"/>
<path d="M3321 2134 c0 -11 3 -14 6 -6 3 7 2 16 -1 19 -3 4 -6 -2 -5 -13z"/>
<path d="M3413 2134 c-18 -8 -33 -17 -33 -20 0 -3 5 -2 10 1 6 3 10 0 10 -7 0
-10 2 -10 9 1 5 7 13 11 19 7 5 -3 15 1 21 8 17 21 1 25 -36 10z"/>
<path d="M1788 2133 c6 -2 18 -2 25 0 6 3 1 5 -13 5 -14 0 -19 -2 -12 -5z"/>
<path d="M245 2120 c3 -5 10 -10 16 -10 5 0 9 5 9 10 0 6 -7 10 -16 10 -8 0
-12 -4 -9 -10z"/>
<path d="M1750 2121 c0 -6 4 -12 8 -15 5 -3 9 1 9 9 0 8 -4 15 -9 15 -4 0 -8
-4 -8 -9z"/>
<path d="M2900 2114 c0 -8 5 -12 10 -9 6 3 10 10 10 16 0 5 -4 9 -10 9 -5 0
-10 -7 -10 -16z"/>
<path d="M1405 2111 c-20 -8 -20 -8 0 -14 11 -4 2 -4 -20 -2 -22 2 -31 1 -20
-2 20 -6 20 -6 0 -14 -17 -6 -17 -8 -2 -8 9 -1 17 -6 17 -12 0 -5 -4 -7 -10
-4 -5 3 -10 -3 -10 -15 0 -31 24 -19 28 14 3 22 8 27 23 23 15 -4 19 0 19 19
0 13 -1 24 -2 23 -2 0 -12 -4 -23 -8z"/>
<path d="M1455 2111 c20 -8 20 -8 0 -13 -16 -5 -17 -6 -2 -7 18 -1 25 -21 7
-21 -5 0 -10 -7 -10 -15 0 -9 6 -12 16 -8 23 9 15 67 -11 70 -20 3 -20 3 0 -6z"/>
<path d="M2751 2104 c0 -11 3 -14 6 -6 3 7 2 16 -1 19 -3 4 -6 -2 -5 -13z"/>
<path d="M579 2093 c-1 -5 -3 -17 -4 -28 -1 -11 -9 -34 -18 -51 l-16 -31 46
-29 c25 -15 52 -39 60 -51 9 -13 21 -23 29 -23 14 0 -59 80 -73 80 -4 0 -16 7
-26 14 -18 14 -17 16 8 56 25 40 27 70 5 70 -5 0 -11 -3 -11 -7z"/>
<path d="M1320 2090 c-13 -9 -13 -10 0 -10 12 0 12 -2 2 -9 -11 -6 -10 -10 4
-15 21 -8 22 -6 15 21 -5 17 -10 20 -21 13z"/>
<path d="M1521 2093 c0 -6 -9 -13 -18 -16 -17 -4 -17 -4 0 -12 22 -9 30 -2 24
22 -3 10 -5 13 -6 6z"/>
<path d="M1275 2080 c-3 -5 0 -10 7 -10 11 0 10 -2 0 -9 -11 -6 -9 -10 7 -14
17 -4 19 -2 11 13 -5 9 -6 20 -3 24 3 3 1 6 -5 6 -6 0 -14 -4 -17 -10z"/>
<path d="M2936 2075 c-3 -8 -1 -15 3 -15 5 0 11 7 15 15 3 8 1 15 -3 15 -5 0
-11 -7 -15 -15z"/>
<path d="M3397 2074 c-26 -14 -29 -34 -6 -34 6 0 7 4 4 10 -3 6 1 7 9 4 9 -4
16 -1 16 6 0 10 3 10 14 1 12 -10 13 -8 9 8 -6 25 -9 25 -46 5z"/>
<path d="M1223 2073 c-23 -4 -32 -36 -14 -47 5 -3 7 -15 4 -26 -4 -15 -2 -19
10 -14 17 6 12 33 -7 46 -7 5 -5 8 4 8 13 0 13 1 0 10 -13 8 -12 10 3 10 11 0
17 -8 17 -22 0 -13 4 -29 9 -37 13 -21 24 5 15 37 -4 15 -7 30 -6 35 1 4 -1 6
-5 6 -5 -1 -18 -4 -30 -6z"/>
<path d="M2737 2069 c7 -7 15 -10 18 -7 3 3 -2 9 -12 12 -14 6 -15 5 -6 -5z"/>
<path d="M3459 2078 c-3 -14 -6 -28 -9 -33 -3 -5 -6 -19 -9 -32 -1 -5 -5 -3
-9 4 -4 7 -17 10 -31 6 -17 -4 -19 -8 -9 -14 9 -6 7 -9 -8 -9 -12 0 -28 -8
-35 -17 -12 -14 -12 -16 0 -8 11 6 13 4 8 -9 -4 -10 -3 -15 3 -11 6 3 10 12
10 19 0 8 8 16 18 20 9 3 23 9 30 12 8 4 10 0 6 -10 -3 -9 -13 -16 -22 -16 -8
0 -13 -3 -9 -6 8 -9 47 6 47 18 0 5 9 22 19 37 13 18 17 32 10 42 -5 7 -9 11
-10 7z"/>
<path d="M823 2063 c9 -2 23 -2 30 0 6 3 -1 5 -18 5 -16 0 -22 -2 -12 -5z"/>
<path d="M1400 2050 c0 -22 7 -25 29 -11 11 7 9 11 -8 20 -18 10 -21 9 -21 -9z"/>
<path d="M1629 2053 c12 -24 31 -39 31 -25 0 5 -10 17 -21 28 -22 19 -22 19
-10 -3z"/>
<path d="M2894 2058 c-4 -7 -3 -8 4 -4 8 5 12 0 12 -13 0 -25 20 -71 32 -71
11 0 11 2 -12 54 -21 49 -25 53 -36 34z"/>
<path d="M767 2049 c-9 -6 -17 -15 -17 -20 0 -6 4 -8 9 -5 5 3 41 -11 80 -30
49 -25 71 -42 71 -55 0 -30 -17 -31 -47 -1 -15 16 -39 31 -53 35 -24 6 -24 5
-5 -8 11 -8 29 -22 40 -30 11 -9 29 -22 39 -29 11 -7 16 -18 12 -24 -12 -19
-35 -14 -52 13 -10 15 -26 25 -40 25 -13 0 -24 4 -24 9 0 5 -18 18 -40 29 -22
11 -40 16 -40 12 0 -4 8 -11 18 -15 40 -15 141 -91 137 -102 -6 -17 1 -16 30
3 14 9 25 12 25 6 0 -15 -21 -29 -60 -40 -24 -7 -28 -10 -13 -11 12 -1 25 -6
29 -13 5 -8 0 -9 -17 -5 -13 4 -30 7 -37 7 -7 0 -10 5 -7 10 4 6 -16 20 -44
32 -28 11 -51 24 -51 29 0 14 -60 -22 -71 -42 -14 -27 -2 -79 19 -79 15 0 15
-2 2 -10 -13 -8 -12 -11 5 -24 33 -25 105 -17 105 13 0 13 2 13 9 2 8 -12 15
-11 43 6 18 11 32 25 31 32 -2 6 5 11 16 11 13 0 26 16 42 53 33 72 33 75 14
52 -17 -20 -17 -20 -10 0 8 23 9 29 7 68 -2 20 -7 27 -24 28 -19 1 -20 2 -5 6
13 3 17 11 14 24 -3 10 0 19 6 19 13 0 -24 29 -37 30 -6 0 -1 -7 10 -15 21
-16 12 -20 -14 -6 -28 14 -87 20 -105 10z m33 -3 c0 -2 -7 -7 -16 -10 -8 -3
-12 -2 -9 4 6 10 25 14 25 6z m90 -46 c-20 -13 -33 -13 -25 0 3 6 14 10 23 10
15 0 15 -2 2 -10z m-145 -177 c33 -16 51 -41 21 -30 -7 3 -19 0 -25 -6 -10 -9
-12 -9 -9 2 2 7 -3 16 -10 18 -8 3 -12 -1 -11 -8 2 -8 -5 -27 -14 -44 -12 -21
-17 -24 -15 -10 2 11 6 22 10 25 3 3 0 14 -8 24 -13 18 -14 18 -14 2 0 -9 -5
-14 -10 -11 -15 9 -8 39 10 47 24 11 37 9 75 -9z m29 -52 c16 -17 16 -19 -3
-24 -17 -4 -20 -1 -19 19 3 29 1 28 22 5z m36 9 c0 -5 -7 -10 -16 -10 -8 0
-12 5 -9 10 3 6 10 10 16 10 5 0 9 -4 9 -10z m24 -6 c3 -8 2 -12 -4 -9 -6 3
-10 10 -10 16 0 14 7 11 14 -7z m-105 -38 c-8 -17 -15 -22 -20 -15 -3 6 0 20
9 30 21 24 26 18 11 -15z"/>
<path d="M1135 2050 c-3 -5 -1 -10 4 -10 6 0 11 5 11 10 0 6 -2 10 -4 10 -3 0
-8 -4 -11 -10z"/>
<path d="M1168 2053 c7 -3 16 -2 19 1 4 3 -2 6 -13 5 -11 0 -14 -3 -6 -6z"/>
<path d="M3100 2051 c0 -10 50 -25 57 -18 2 3 -10 9 -26 15 -17 6 -31 7 -31 3z"/>
<path d="M670 2046 c0 -2 15 -6 34 -8 19 -2 32 0 30 4 -5 8 -64 12 -64 4z"/>
<path d="M1066 2043 c-14 -4 -17 -11 -12 -35 3 -17 6 -39 6 -50 0 -10 5 -16
10 -13 6 4 8 11 5 16 -4 5 -1 9 4 9 6 0 11 -5 11 -11 0 -5 4 -8 10 -4 13 8 0
37 -15 31 -8 -3 -15 5 -18 20 -3 16 0 24 9 24 8 0 14 5 14 10 0 6 -1 9 -2 9
-2 -1 -11 -3 -22 -6z"/>
<path d="M1465 2035 c-22 -8 -31 -14 -20 -14 11 0 34 6 50 14 38 17 22 17 -30
0z"/>
<path d="M2955 2020 c8 -16 15 -35 15 -42 0 -18 50 -91 58 -84 3 4 0 12 -6 18
-18 18 -14 32 5 17 15 -13 15 -12 5 8 -15 27 -34 41 -25 17 4 -12 3 -15 -5
-10 -6 4 -11 17 -10 29 2 23 -28 77 -43 77 -5 0 -3 -13 6 -30z"/>
<path d="M1172 2016 c1 -14 5 -23 9 -20 4 2 10 -2 12 -8 4 -8 6 -7 6 4 1 9 -4
20 -9 23 -6 4 -8 11 -5 16 4 5 1 9 -4 9 -6 0 -10 -11 -9 -24z"/>
<path d="M1280 2019 c0 -12 5 -19 12 -17 18 6 20 25 3 31 -10 5 -15 0 -15 -14z"/>
<path d="M1320 2024 c0 -9 5 -14 12 -12 18 6 21 28 4 28 -9 0 -16 -7 -16 -16z"/>
<path d="M3275 2029 c3 -4 -2 -10 -11 -13 -9 -4 -14 -9 -11 -12 6 -6 47 17 47
27 0 3 -7 6 -15 6 -8 0 -12 -4 -10 -8z"/>
<path d="M999 2026 c-3 -3 -20 -7 -38 -8 -18 -1 -34 -5 -36 -8 -7 -11 17 -100
25 -95 5 3 5 19 0 35 -5 17 -5 30 -1 30 5 0 11 -14 15 -32 8 -40 15 -33 9 10
-4 20 -11 32 -22 33 -9 0 -3 5 13 11 22 8 30 7 37 -3 4 -7 10 -11 12 -9 6 7
-8 42 -14 36z"/>
<path d="M1020 2022 c0 -4 4 -22 9 -40 6 -20 6 -32 0 -32 -5 0 -9 7 -9 15 0 8
-4 15 -9 15 -4 0 -6 -11 -3 -25 5 -27 10 -29 30 -16 11 6 11 17 4 44 -6 20 -7
38 -4 41 3 3 0 6 -6 6 -7 0 -12 -3 -12 -8z"/>
<path d="M1110 2005 c0 -14 4 -25 8 -25 4 0 8 11 8 25 0 14 -4 25 -8 25 -4 0
-8 -11 -8 -25z"/>
<path d="M2534 2016 c-10 -8 -16 -17 -13 -20 3 -3 14 3 24 14 21 23 17 26 -11
6z"/>
<path d="M2880 2021 c0 -5 5 -13 10 -16 6 -3 10 -2 10 4 0 5 -4 13 -10 16 -5
3 -10 2 -10 -4z"/>
<path d="M660 2009 c0 -5 5 -7 10 -4 6 3 10 8 10 11 0 2 -4 4 -10 4 -5 0 -10
-5 -10 -11z"/>
<path d="M1080 2009 c0 -5 5 -7 10 -4 6 3 10 8 10 11 0 2 -4 4 -10 4 -5 0 -10
-5 -10 -11z"/>
<path d="M1346 2006 c-49 -15 -57 -31 -16 -31 16 -1 30 3 30 7 0 4 15 14 33
22 41 18 9 19 -47 2z"/>
<path d="M466 1999 c6 -11 41 -12 47 -1 3 4 -8 7 -24 8 -15 1 -26 -3 -23 -7z"/>
<path d="M1140 2000 c0 -5 5 -10 10 -10 6 0 10 5 10 10 0 6 -4 10 -10 10 -5 0
-10 -4 -10 -10z"/>
<path d="M981 1984 c0 -11 3 -14 6 -6 3 7 2 16 -1 19 -3 4 -6 -2 -5 -13z"/>
<path d="M694 1939 c38 -32 66 -45 66 -30 0 3 -8 11 -19 16 -10 6 -34 18 -52
28 -34 19 -34 19 5 -14z"/>
<path d="M986 1945 c4 -8 8 -15 10 -15 2 0 4 7 4 15 0 8 -4 15 -10 15 -5 0 -7
-7 -4 -15z"/>
<path d="M2557 1945 c-8 -8 -17 -11 -21 -8 -3 4 -6 -1 -6 -10 0 -9 5 -17 10
-17 6 0 10 4 10 10 0 5 12 16 28 24 18 10 21 15 10 16 -9 0 -23 -7 -31 -15z"/>
<path d="M2890 1954 c0 -5 7 -19 15 -30 8 -10 15 -14 15 -8 0 5 -7 19 -15 30
-8 10 -15 14 -15 8z"/>
<path d="M2939 1943 c-13 -16 -12 -17 4 -4 16 13 21 21 13 21 -2 0 -10 -8 -17
-17z"/>
<path d="M3265 1950 c-4 -6 3 -10 14 -10 25 0 27 6 6 13 -8 4 -17 2 -20 -3z"/>
<path d="M2630 1938 c-30 -11 -60 -37 -60 -52 0 -6 8 -2 17 9 16 20 16 20 8 0
-4 -11 -8 -28 -9 -37 0 -16 -1 -16 -17 0 -9 10 -19 24 -22 32 -4 10 -6 11 -6
2 -1 -19 29 -61 53 -74 18 -9 19 -9 10 3 -9 10 -8 26 3 63 14 47 15 48 49 44
38 -5 42 -3 17 10 -11 6 -28 6 -43 0z"/>
<path d="M115 1928 c-7 -19 12 -61 24 -53 5 2 11 -5 15 -18 9 -33 7 -44 -5
-24 -5 9 -15 17 -21 17 -9 0 -9 -3 -1 -11 6 -6 9 -18 6 -25 -6 -15 5 -18 25
-6 8 6 10 22 6 56 -4 26 -10 42 -14 36 -5 -8 -11 -2 -18 16 -8 23 -11 26 -17
12z"/>
<path d="M535 1920 c-3 -5 -1 -10 4 -10 6 0 11 5 11 10 0 6 -2 10 -4 10 -3 0
-8 -4 -11 -10z"/>
<path d="M2977 1889 c12 -12 24 -21 27 -18 2 2 -8 13 -22 23 l-27 19 22 -24z"/>
<path d="M3040 1890 c0 -6 7 -10 15 -10 8 0 15 2 15 4 0 2 -7 6 -15 10 -8 3
-15 1 -15 -4z"/>
<path d="M3438 1893 c7 -3 16 -2 19 1 4 3 -2 6 -13 5 -11 0 -14 -3 -6 -6z"/>
<path d="M785 1865 c17 -14 36 -25 43 -25 8 0 0 11 -16 25 -17 14 -36 25 -43
25 -8 -1 0 -12 16 -25z"/>
<path d="M3272 1864 c10 -10 20 -15 24 -12 3 4 -5 12 -18 18 -22 12 -22 12 -6
-6z"/>
<path d="M3251 1847 c33 -29 61 -75 50 -82 -5 -3 -12 4 -16 15 -3 11 -11 20
-16 20 -12 0 -11 -10 6 -40 27 -47 15 -45 -30 5 -28 31 -45 44 -45 34 0 -9 20
-38 45 -64 l46 -47 42 28 c23 15 51 32 62 38 19 11 19 12 -7 38 -28 27 -36 22
-18 -12 11 -21 -11 -46 -31 -34 -7 4 -9 3 -5 -4 6 -10 -34 -46 -42 -37 -3 2 3
16 12 30 14 22 15 32 6 60 -11 34 -52 75 -74 75 -6 -1 0 -11 15 -23z"/>
<path d="M1100 1811 c-6 -24 -9 -45 -6 -48 3 -3 8 8 12 23 4 16 11 31 15 34 4
3 4 12 -1 19 -6 10 -12 2 -20 -28z"/>
<path d="M3326 1808 c2 -17 10 -35 16 -39 18 -11 19 -7 7 34 -12 45 -28 49
-23 5z"/>
<path d="M3161 1778 c5 -18 9 -48 9 -66 0 -20 4 -31 10 -27 6 3 10 24 10 46 0
24 -4 38 -10 34 -5 -3 -10 3 -10 14 0 11 -4 22 -9 26 -6 3 -6 -7 0 -27z"/>
<path d="M1010 1760 c-50 -17 -51 -18 -15 -13 44 6 85 20 85 28 0 8 -10 6 -70
-15z"/>
<path d="M2493 1773 c9 -2 23 -2 30 0 6 3 -1 5 -18 5 -16 0 -22 -2 -12 -5z"/>
<path d="M3005 1721 c0 -33 3 -57 8 -54 4 2 7 29 7 59 0 30 -3 54 -7 54 -5 0
-8 -27 -8 -59z"/>
<path d="M1070 1740 c0 -6 11 -8 28 -4 39 10 40 14 4 14 -18 0 -32 -5 -32 -10z"/>
<path d="M1440 1735 c0 -2 15 -9 33 -14 l32 -9 -37 -1 c-20 -1 -40 3 -43 9 -4
6 -11 5 -20 -3 -21 -18 9 -37 61 -37 48 0 59 9 41 32 -11 15 -67 34 -67 23z"/>
<path d="M3200 1719 c0 -19 2 -21 10 -9 8 13 10 13 10 -2 0 -18 37 -44 48 -34
3 3 3 7 1 9 -2 1 -19 15 -37 31 l-32 30 0 -25z"/>
<path d="M908 1723 c-10 -2 -18 -12 -18 -20 0 -14 3 -14 20 2 17 15 26 28 18
24 -2 -1 -11 -3 -20 -6z"/>
<path d="M1057 1703 c-59 -21 -82 -25 -95 -16 -12 7 -27 7 -54 -3 -20 -7 -39
-9 -43 -6 -4 4 -3 -3 4 -15 19 -36 35 -40 30 -7 -2 16 30 23 76 18 40 -4 64 1
125 25 93 37 63 40 -43 4z"/>
<path d="M1170 1704 c-25 -13 -50 -24 -57 -24 -6 0 -15 -5 -19 -11 -9 -15 26
-4 101 32 33 16 51 29 40 28 -11 -1 -40 -12 -65 -25z"/>
<path d="M2440 1723 c8 -3 34 -13 57 -23 34 -15 41 -16 36 -4 -3 8 -8 13 -11
10 -2 -3 -17 1 -33 9 -15 8 -36 15 -46 14 -14 0 -15 -2 -3 -6z"/>
<path d="M820 1703 c-14 -10 -50 -44 -80 -76 -66 -72 -128 -116 -195 -139 -27
-9 -41 -17 -30 -17 12 -1 25 -5 31 -11 6 -6 21 -6 39 -1 17 5 24 10 18 10 -7
1 -13 4 -13 9 0 4 19 7 43 6 23 -1 30 0 15 3 -37 6 -36 20 2 25 20 3 30 0 30
-9 0 -7 5 -13 10 -13 6 0 8 13 5 29 -4 23 2 36 31 67 20 22 43 49 51 62 8 12
21 22 29 22 7 0 17 6 21 13 4 7 19 18 33 24 22 10 23 12 5 12 -11 1 -32 -7
-45 -16z"/>
<path d="M1008 1713 c6 -2 18 -2 25 0 6 3 1 5 -13 5 -14 0 -19 -2 -12 -5z"/>
<path d="M2370 1709 c0 -5 5 -7 10 -4 6 3 10 8 10 11 0 2 -4 4 -10 4 -5 0 -10
-5 -10 -11z"/>
<path d="M3120 1684 c-14 -8 -36 -14 -50 -14 -14 0 -32 -5 -40 -11 -12 -8 -10
-10 10 -6 14 3 46 9 73 12 26 4 47 11 47 16 0 15 -15 16 -40 3z"/>
<path d="M1246 1681 c-3 -5 -17 -8 -32 -8 -14 0 -31 -6 -37 -13 -9 -10 -7 -11
13 -6 25 7 25 7 -3 -11 -15 -10 -30 -26 -33 -36 -10 -31 -29 -13 -26 24 2 26
0 30 -7 19 -6 -8 -11 -29 -11 -47 0 -17 -4 -35 -10 -38 -5 -3 -10 -17 -10 -31
0 -13 -4 -24 -9 -24 -5 0 -7 -9 -4 -20 6 -24 12 -21 18 8 2 11 11 32 20 46 9
14 13 31 9 37 -4 8 -3 9 5 5 12 -8 40 11 111 73 19 16 30 30 23 31 -6 0 -14
-4 -17 -9z"/>
<path d="M2266 1680 c10 -10 194 -80 209 -80 15 1 -34 27 -95 51 -65 25 -126
41 -114 29z"/>
<path d="M2550 1686 c0 -2 7 -6 15 -10 8 -3 15 -1 15 4 0 6 -7 10 -15 10 -8 0
-15 -2 -15 -4z"/>
<path d="M3191 1670 c-17 -10 12 -21 63 -25 29 -2 35 0 22 7 -9 5 -24 7 -32 4
-8 -3 -14 -1 -14 3 0 13 -25 20 -39 11z"/>
<path d="M830 1656 c0 -7 7 -19 15 -26 8 -7 15 -9 15 -5 0 4 8 1 18 -6 15 -13
16 -12 3 4 -7 9 -20 17 -27 17 -8 0 -11 6 -8 15 4 8 1 15 -5 15 -6 0 -11 -6
-11 -14z"/>
<path d="M1065 1645 c0 -25 14 -36 16 -12 0 6 4 3 9 -8 9 -20 9 -20 9 1 1 18
-16 44 -28 44 -4 0 -6 -11 -6 -25z"/>
<path d="M1400 1663 c0 -5 7 -18 15 -29 13 -18 14 -18 8 4 -5 22 -23 41 -23
25z"/>
<path d="M1615 1659 c-8 -13 21 -22 69 -23 30 -1 41 3 44 16 3 14 -6 17 -52
17 -31 0 -58 -5 -61 -10z"/>
<path d="M803 1617 c-1 -25 -5 -52 -9 -59 -5 -7 -7 -22 -6 -33 2 -15 1 -17 -7
-6 -5 8 -16 11 -26 7 -15 -5 -17 -1 -13 24 3 16 1 30 -4 30 -4 0 -8 -13 -8
-30 0 -19 7 -33 21 -40 11 -6 24 -21 29 -33 7 -19 9 -16 16 23 8 44 8 44 15
15 7 -30 7 -30 8 -3 0 15 -3 29 -7 32 -5 3 -7 19 -4 37 3 22 7 27 13 18 15
-23 10 12 -5 40 -12 22 -13 20 -13 -22z"/>
<path d="M920 1650 c0 -5 5 -10 10 -10 6 0 10 5 10 10 0 6 -4 10 -10 10 -5 0
-10 -4 -10 -10z"/>
<path d="M980 1650 c0 -5 9 -9 20 -7 31 5 36 17 7 17 -15 0 -27 -4 -27 -10z"/>
<path d="M1285 1650 c-4 -6 -11 -8 -16 -5 -5 4 -9 1 -9 -4 0 -6 -5 -11 -10
-11 -6 0 -29 -14 -53 -31 -31 -23 -36 -29 -17 -24 14 4 31 12 39 18 17 14 49
33 79 46 12 6 22 13 22 16 0 9 -29 5 -35 -5z"/>
<path d="M1300 1595 c-23 -31 -45 -53 -50 -50 -6 3 -7 -1 -4 -9 3 -9 10 -16
14 -16 9 0 36 31 34 39 -3 14 9 30 19 24 5 -3 7 -1 4 4 -4 6 3 22 14 37 11 14
18 26 15 26 -3 0 -24 -25 -46 -55z"/>
<path d="M1370 1640 c8 -5 11 -10 6 -10 -5 0 -4 -6 1 -12 15 -20 42 -100 47
-138 2 -19 9 -57 16 -85 7 -27 13 -59 14 -70 2 -19 -28 -55 -45 -55 -10 0 -84
88 -84 100 0 5 -10 17 -22 25 -33 23 -28 9 17 -47 43 -54 48 -68 26 -68 -18 0
-30 -17 -17 -24 5 -4 17 1 26 11 14 13 18 14 25 3 6 -9 -1 -19 -23 -31 l-32
-17 -17 57 c-10 31 -25 68 -33 84 -9 15 -13 32 -10 38 4 5 -1 19 -11 30 -15
17 -16 22 -4 29 9 6 17 5 21 -1 3 -6 11 4 18 22 14 40 14 39 -5 39 -11 0 -15
-6 -11 -19 3 -13 -3 -22 -18 -29 -19 -9 -28 -7 -49 13 -14 13 -26 30 -26 37 0
7 -5 20 -10 28 -7 12 -13 11 -34 -10 -29 -27 -36 -52 -8 -27 27 24 37 21 19
-6 -14 -21 -13 -23 4 -24 10 -1 19 3 19 9 0 6 3 9 6 6 13 -13 -17 -46 -46 -50
-16 -3 -30 -1 -30 4 0 4 7 8 16 8 8 0 12 5 9 10 -3 6 -10 10 -15 10 -14 0 -21
-32 -10 -45 8 -9 5 -14 -12 -19 -29 -7 -158 -6 -222 2 -42 6 -50 10 -53 31 -5
37 -13 38 -13 3 0 -18 5 -32 11 -32 5 0 8 -4 5 -9 -5 -8 78 -21 232 -37 53 -6
62 -5 62 10 0 20 14 21 30 1 10 -12 9 -19 -3 -38 -12 -19 -23 -23 -49 -21 -30
3 -30 3 -8 -5 51 -18 67 -13 85 27 10 20 24 42 31 47 10 7 11 15 4 25 -5 8
-10 11 -10 5 0 -5 -7 -19 -15 -29 -12 -16 -17 -17 -30 -6 -16 13 -22 55 -6 46
5 -3 21 4 35 15 l27 21 20 -20 c10 -12 19 -34 19 -50 0 -16 3 -32 6 -35 4 -4
9 -42 11 -85 3 -62 1 -82 -12 -92 -13 -10 -15 -9 -15 6 0 16 -2 16 -10 4 -5
-8 -12 -11 -16 -7 -4 3 -1 13 6 22 7 9 10 18 7 21 -3 4 -18 -7 -32 -24 -15
-19 -32 -29 -40 -25 -8 3 -15 0 -15 -6 0 -6 5 -10 11 -9 6 2 13 -2 16 -9 3 -7
-4 -10 -19 -7 -22 4 -22 4 1 -6 21 -9 41 -4 130 36 59 26 155 64 214 84 60 19
108 40 107 45 -1 6 -5 9 -9 8 -5 -1 -18 18 -31 43 -12 25 -24 43 -27 40 -3 -3
4 -24 16 -47 12 -23 21 -43 19 -44 -11 -10 -77 -32 -82 -27 -3 3 -6 25 -6 48
0 106 -69 314 -104 314 -6 0 -4 -5 4 -10z m-86 -355 c-4 -15 -2 -25 5 -25 6 0
11 -7 11 -15 0 -27 -16 -16 -27 19 -11 34 -8 46 9 46 5 0 6 -11 2 -25z m-98
-122 c-10 -10 -19 5 -10 18 6 11 8 11 12 0 2 -7 1 -15 -2 -18z"/>
<path d="M2086 1635 c-3 -9 -5 -33 -5 -53 1 -34 2 -33 10 13 8 51 6 68 -5 40z"/>
<path d="M2231 1646 c5 -5 115 -45 144 -53 20 -5 20 -5 0 9 -32 24 -164 64
-144 44z"/>
<path d="M2500 1620 c19 -11 40 -19 45 -19 6 0 -6 8 -25 19 -19 11 -39 19 -45
19 -5 0 6 -8 25 -19z"/>
<path d="M3255 1620 c21 -23 45 -26 45 -5 0 8 -6 12 -14 9 -8 -3 -17 -1 -21 5
-3 6 -11 11 -17 11 -6 0 -3 -9 7 -20z"/>
<path d="M929 1599 c-19 -17 -40 -34 -48 -38 -8 -5 -11 -14 -6 -21 6 -10 10
-9 17 4 5 9 14 16 19 16 12 0 39 25 39 36 0 4 8 13 18 20 9 7 12 14 6 14 -6 0
-26 -14 -45 -31z"/>
<path d="M1495 1620 c3 -5 11 -10 16 -10 6 0 7 5 4 10 -3 6 -11 10 -16 10 -6
0 -7 -4 -4 -10z"/>
<path d="M1603 1623 c9 -2 17 -9 17 -14 0 -6 5 -7 11 -3 14 8 -8 24 -31 23
-11 -1 -10 -3 3 -6z"/>
<path d="M3118 1623 c7 -3 16 -2 19 1 4 3 -2 6 -13 5 -11 0 -14 -3 -6 -6z"/>
<path d="M774 1612 c4 -7 3 -12 -3 -12 -10 0 -9 -26 2 -35 4 -3 5 -2 2 1 -2 4
0 15 5 25 7 12 6 20 -2 25 -7 4 -8 3 -4 -4z"/>
<path d="M2161 1598 c0 -7 17 -26 37 -43 l36 -30 -20 33 c-21 37 -55 62 -53
40z"/>
<path d="M2250 1606 c0 -2 9 -6 20 -9 11 -3 18 -1 14 4 -5 9 -34 13 -34 5z"/>
<path d="M248 1584 c6 -11 19 -27 28 -35 16 -13 16 -12 6 7 -6 11 -19 27 -28
35 -16 13 -16 12 -6 -7z"/>
<path d="M3206 1589 c3 -5 10 -6 16 -3 7 5 9 0 6 -13 -3 -12 0 -20 7 -20 19 0
2 40 -18 43 -10 1 -15 -2 -11 -7z"/>
<path d="M1430 1586 c0 -14 64 -126 72 -126 13 0 9 13 -12 40 -23 30 -25 44
-6 37 10 -4 13 -1 9 9 -4 10 0 12 11 8 12 -5 15 -2 10 11 -6 15 -9 15 -27 -4
l-21 -20 -18 27 c-10 15 -18 23 -18 18z"/>
<path d="M1615 1580 c-3 -5 -1 -10 4 -10 6 0 11 5 11 10 0 6 -2 10 -4 10 -3 0
-8 -4 -11 -10z"/>
<path d="M2225 1580 c3 -5 13 -10 21 -10 15 0 19 -15 7 -23 -5 -2 -2 -2 5 -1
6 2 12 -2 12 -8 0 -15 15 0 15 15 1 13 -33 36 -53 37 -7 0 -10 -4 -7 -10z"/>
<path d="M2948 1583 c7 -3 16 -2 19 1 4 3 -2 6 -13 5 -11 0 -14 -3 -6 -6z"/>
<path d="M1035 1564 c-38 -13 -39 -13 -7 -10 26 2 32 -1 33 -18 0 -16 3 -13
10 8 4 17 7 31 6 32 -1 1 -20 -5 -42 -12z"/>
<path d="M1556 1572 c-3 -5 1 -9 9 -9 8 0 12 4 9 9 -3 4 -7 8 -9 8 -2 0 -6 -4
-9 -8z"/>
<path d="M2120 1576 c0 -3 15 -26 34 -50 18 -24 40 -58 47 -75 13 -30 39 -50
39 -31 0 6 -4 10 -10 10 -5 0 -10 5 -10 11 0 12 -76 125 -90 134 -5 3 -10 4
-10 1z"/>
<path d="M2386 1550 c-16 -17 -24 -30 -18 -30 6 0 19 11 29 23 10 13 25 26 33
30 13 5 13 5 0 6 -8 0 -28 -13 -44 -29z"/>
<path d="M1215 1560 c-8 -13 5 -13 25 0 13 8 13 10 -2 10 -9 0 -20 -4 -23 -10z"/>
<path d="M2455 1540 c-33 -15 -57 -29 -54 -29 10 -1 119 48 119 54 0 7 3 8
-65 -25z"/>
<path d="M2540 1544 c-13 -13 -38 -29 -54 -34 -28 -9 -28 -9 9 -4 22 3 45 12
51 20 10 12 30 13 135 3 139 -12 208 -32 301 -85 34 -20 64 -38 66 -39 1 -1
-36 -156 -83 -343 -47 -188 -85 -347 -85 -354 0 -7 11 -1 24 12 15 16 31 55
45 110 11 47 46 181 76 299 62 241 58 224 45 216 -6 -4 -10 7 -10 26 0 31 1
32 20 14 10 -9 19 -20 18 -24 -2 -22 6 -34 42 -57 38 -26 70 -71 70 -102 0 -9
16 0 43 24 50 45 55 54 28 47 -12 -3 -21 -9 -21 -14 0 -5 -6 -9 -14 -9 -8 0
-17 -6 -19 -12 -4 -10 -8 -10 -15 1 -15 21 7 61 32 61 14 0 17 3 9 11 -12 12
-53 -4 -53 -21 0 -24 -20 -7 -21 18 0 21 -2 23 -8 9 -6 -16 -12 -12 -44 28
-20 26 -34 52 -31 56 3 5 -2 9 -11 9 -14 0 -63 26 -75 40 -3 4 -40 23 -83 43
-64 31 -95 39 -180 48 -147 14 -165 17 -175 23 -5 3 -20 -6 -32 -20z"/>
<path d="M570 1550 c-18 -12 -2 -12 25 0 13 6 15 9 5 9 -8 0 -22 -4 -30 -9z"/>
<path d="M1588 1538 c-10 -10 -14 -18 -9 -18 6 0 13 5 16 11 5 6 12 4 20 -8 7
-10 17 -15 21 -10 4 4 2 7 -5 7 -7 0 -10 3 -8 8 3 4 0 12 -7 17 -8 7 -16 5
-28 -7z"/>
<path d="M2304 1545 c-9 -21 -2 -26 13 -10 8 9 9 16 3 20 -6 3 -13 -1 -16 -10z"/>
<path d="M3185 1550 c3 -5 8 -10 11 -10 2 0 4 5 4 10 0 6 -5 10 -11 10 -5 0
-7 -4 -4 -10z"/>
<path d="M528 1533 c7 -3 16 -2 19 1 4 3 -2 6 -13 5 -11 0 -14 -3 -6 -6z"/>
<path d="M918 1533 c6 -2 18 -2 25 0 6 3 1 5 -13 5 -14 0 -19 -2 -12 -5z"/>
<path d="M984 1529 c-7 -11 27 -11 45 0 9 6 5 9 -13 9 -15 0 -29 -4 -32 -9z"/>
<path d="M1700 1525 c0 -8 -5 -15 -12 -15 -6 0 -9 -2 -6 -5 9 -10 35 5 35 20
0 8 -4 15 -9 15 -4 0 -8 -7 -8 -15z"/>
<path d="M2197 1512 c10 -19 27 -39 38 -44 11 -6 23 -16 27 -22 5 -7 8 -4 8 7
0 9 -6 17 -14 17 -8 0 -28 17 -46 38 l-31 37 18 -33z"/>
<path d="M488 1523 c7 -3 16 -2 19 1 4 3 -2 6 -13 5 -11 0 -14 -3 -6 -6z"/>
<path d="M2926 1521 c26 -22 214 -44 231 -27 3 3 -26 6 -65 6 -39 0 -74 5 -77
10 -4 6 -10 8 -14 6 -4 -3 -24 -1 -45 4 -21 5 -35 5 -30 1z"/>
<path d="M945 1509 c-5 -6 -27 -8 -63 -3 -32 3 -54 4 -51 0 11 -12 98 -18 137
-11 31 6 34 9 17 15 -28 12 -33 12 -40 -1z"/>
<path d="M1022 1504 c-12 -8 -22 -21 -22 -28 0 -7 -15 -13 -37 -14 -21 -2 -60
-7 -88 -12 -36 -6 -17 -7 65 -3 63 3 117 7 119 9 2 2 -8 4 -22 4 -33 0 -34 7
-5 31 27 24 19 34 -10 13z"/>
<path d="M1237 1504 c-8 -8 1 -24 14 -24 5 0 9 7 9 15 0 15 -12 20 -23 9z"/>
<path d="M2256 1501 c-15 -6 -16 -10 -7 -16 7 -4 16 -3 20 3 3 6 27 12 51 15
l45 4 -45 1 c-25 0 -54 -3 -64 -7z"/>
<path d="M2370 1500 c0 -6 17 -10 37 -10 43 0 41 5 -4 13 -19 4 -33 2 -33 -3z"/>
<path d="M2705 1505 c18 -9 239 -64 242 -61 5 5 -108 45 -142 50 -16 2 -48 7
-70 10 -22 3 -35 4 -30 1z"/>
<path d="M2146 1485 c4 -11 7 -33 7 -48 0 -20 4 -26 13 -23 25 9 15 -3 -13
-18 -16 -7 -82 -24 -148 -36 -66 -11 -138 -30 -161 -41 -23 -10 -49 -19 -58
-19 -9 0 -16 -5 -16 -11 0 -6 -8 -8 -19 -4 -11 3 -22 1 -26 -4 -4 -7 6 -9 27
-5 18 3 44 6 57 6 19 0 21 2 10 10 -11 8 -10 9 4 4 10 -3 27 -1 37 4 10 5 36
12 57 16 21 3 53 12 71 20 54 25 84 23 93 -6 7 -24 7 -24 8 -2 1 15 7 22 20
22 11 0 33 11 49 25 24 20 31 22 36 10 3 -8 11 -15 18 -15 8 0 9 3 3 8 -5 4
-11 12 -12 19 -1 6 -17 33 -34 60 -17 26 -28 39 -23 28z"/>
<path d="M3193 1493 c15 -2 25 -8 23 -12 -3 -4 7 -8 20 -9 15 -1 23 2 19 8 -4
6 -10 8 -15 5 -5 -3 -11 -1 -15 5 -3 5 -18 9 -33 9 l-27 -2 28 -4z"/>
<path d="M690 1480 c-13 -8 -12 -10 3 -10 9 0 17 5 17 10 0 12 -1 12 -20 0z"/>
<path d="M475 1460 c4 -11 2 -20 -4 -20 -6 0 -11 -5 -11 -11 0 -5 4 -7 10 -4
5 3 34 -1 65 -9 30 -8 57 -10 60 -6 3 5 -8 11 -24 15 -16 3 -42 17 -58 31 -34
29 -46 31 -38 4z m35 -20 c0 -5 -2 -10 -4 -10 -3 0 -8 5 -11 10 -3 6 -1 10 4
10 6 0 11 -4 11 -10z"/>
<path d="M828 1473 c6 -2 18 -2 25 0 6 3 1 5 -13 5 -14 0 -19 -2 -12 -5z"/>
<path d="M3306 1471 c-3 -5 0 -11 7 -14 8 -3 14 1 14 9 0 16 -13 19 -21 5z"/>
<path d="M630 1451 c0 -6 -7 -7 -17 -4 -11 4 -14 3 -9 -6 4 -6 16 -9 27 -6 27
9 24 -4 -3 -15 -18 -7 -19 -9 -5 -9 9 -1 17 -5 17 -11 0 -5 7 -10 16 -10 8 0
12 5 9 10 -3 6 -1 10 4 10 6 0 11 -8 12 -17 0 -13 2 -14 6 -4 3 8 -2 20 -13
28 -10 7 -13 13 -7 13 7 0 19 -7 27 -16 11 -10 30 -14 63 -12 l48 3 -38 17
c-20 9 -56 20 -79 23 -24 4 -46 9 -50 11 -5 3 -8 1 -8 -5z"/>
<path d="M1300 1450 c0 -5 5 -10 11 -10 5 0 7 5 4 10 -3 6 -8 10 -11 10 -2 0
-4 -4 -4 -10z"/>
<path d="M1614 1448 c-3 -5 -3 -12 0 -15 3 -4 6 -1 6 7 0 10 3 10 15 0 12 -10
15 -10 15 1 0 12 2 12 9 0 6 -9 11 -10 15 -2 4 6 4 11 -1 12 -4 0 -18 2 -31 3
-13 2 -25 -1 -28 -6z"/>
<path d="M1716 1448 c5 -8 74 -1 84 9 2 2 -17 3 -42 2 -26 -2 -45 -6 -42 -11z"/>
<path d="M2080 1435 c0 -22 2 -23 32 -14 18 5 34 9 35 9 2 0 3 5 3 11 0 6 -6
9 -12 6 -7 -2 -23 0 -35 4 -20 7 -23 5 -23 -16z"/>
<path d="M3158 1450 c51 -4 105 -11 120 -14 24 -6 25 -5 7 5 -10 7 -64 13
-120 15 l-100 3 93 -9z"/>
<path d="M575 1440 c3 -5 8 -10 11 -10 2 0 4 5 4 10 0 6 -5 10 -11 10 -5 0 -7
-4 -4 -10z"/>
<path d="M1560 1446 c0 -2 9 -6 20 -9 11 -3 20 -1 20 4 0 5 -9 9 -20 9 -11 0
-20 -2 -20 -4z"/>
<path d="M3140 1430 c-5 -3 28 -10 75 -16 46 -5 81 -6 77 -3 -11 10 -140 26
-152 19z"/>
<path d="M1730 1421 c0 -6 -8 -8 -17 -4 -15 5 -16 3 -6 -7 10 -10 15 -11 27
-1 10 8 16 9 19 1 3 -6 4 -5 3 2 -3 15 -26 23 -26 9z"/>
<path d="M2880 1420 c0 -5 5 -10 11 -10 5 0 7 5 4 10 -3 6 -8 10 -11 10 -2 0
-4 -4 -4 -10z"/>
<path d="M1626 1407 c3 -10 9 -15 12 -12 3 3 0 11 -7 18 -10 9 -11 8 -5 -6z"/>
<path d="M3170 1390 c54 -14 148 -21 128 -10 -9 6 -49 12 -90 15 -56 3 -65 2
-38 -5z"/>
<path d="M1208 1373 c-8 -10 -19 -25 -23 -33 -8 -13 -7 -13 9 -1 16 14 41 51
33 51 -2 0 -11 -8 -19 -17z"/>
<path d="M1116 1364 c-4 -9 -4 -19 -1 -22 2 -3 7 3 11 12 4 9 4 19 1 22 -2 3
-7 -3 -11 -12z"/>
<path d="M1355 1370 c3 -5 8 -10 11 -10 2 0 4 5 4 10 0 6 -5 10 -11 10 -5 0
-7 -4 -4 -10z"/>
<path d="M1570 1368 c0 -5 12 -8 26 -8 14 0 35 -5 46 -11 l21 -11 -24 -20
c-22 -17 -22 -18 -2 -9 12 6 24 15 27 20 7 10 62 21 118 23 22 1 34 6 32 12
-5 13 -244 16 -244 4z"/>
<path d="M3146 1367 c3 -10 9 -15 12 -12 3 3 0 11 -7 18 -10 9 -11 8 -5 -6z"/>
<path d="M3185 1360 c-2 -4 16 -7 41 -9 24 -1 44 0 44 2 0 7 -81 13 -85 7z"/>
<path d="M1780 1330 c-8 -6 -46 -20 -85 -31 -38 -12 -112 -34 -163 -50 -51
-16 -107 -29 -125 -29 -18 0 -37 -4 -43 -9 -5 -5 -49 -26 -99 -46 -49 -20
-129 -58 -178 -83 -48 -26 -98 -53 -112 -60 -14 -7 -25 -17 -25 -23 0 -5 -7
-9 -15 -9 -8 0 -15 -5 -15 -10 0 -6 24 2 53 17 28 14 59 27 67 28 8 1 26 5 39
9 16 6 27 4 33 -5 8 -11 9 -10 5 3 -5 13 15 24 94 53 55 21 102 42 105 46 8
14 -18 10 -46 -6 -14 -8 -35 -14 -46 -15 -12 0 -27 -7 -35 -16 -7 -8 -21 -13
-31 -11 -10 3 -16 1 -12 -4 3 -5 1 -9 -5 -9 -5 0 -13 5 -16 10 -6 9 -1 11 32
14 7 1 21 9 32 18 11 9 22 14 24 11 10 -9 47 8 41 19 -5 7 -2 8 6 3 7 -4 15
-4 19 1 5 9 112 45 171 58 21 5 20 4 -5 -9 -18 -8 -23 -14 -13 -15 12 0 15 -6
10 -22 l-5 -22 -8 22 c-5 12 -10 22 -12 22 -14 0 -83 -34 -89 -44 -11 -16 -10
-125 1 -163 5 -18 6 -35 1 -38 -5 -3 -10 3 -13 12 -2 10 -3 -19 -1 -64 2 -46
0 -93 -5 -105 -5 -13 -5 -32 -1 -44 10 -26 5 -27 -128 -27 -65 0 -107 4 -114
11 -7 7 -16 12 -21 12 -14 0 -3 -42 13 -51 38 -21 181 -71 187 -66 11 11 -18
36 -38 32 -13 -3 -19 2 -19 14 0 15 8 18 48 17 42 -1 47 -4 50 -25 3 -20 10
-14 42 40 21 35 43 64 49 64 14 0 16 18 3 23 -6 2 -22 -10 -36 -25 l-26 -28 0
27 c0 21 6 29 24 34 25 6 40 29 30 45 -3 5 0 8 7 7 17 -4 12 75 -7 121 -19 44
-18 53 7 79 13 15 18 29 14 42 -9 28 -25 25 -25 -5 0 -14 -4 -25 -8 -25 -5 0
-7 14 -4 30 2 18 10 30 19 30 8 0 13 6 10 13 -2 6 -12 11 -22 10 -11 -1 -14 2
-7 9 18 18 47 4 45 -22 -1 -15 0 -18 3 -7 11 36 27 17 22 -28 -3 -24 -3 -47 0
-50 7 -7 33 115 27 125 -2 3 8 5 23 3 15 -2 63 0 107 5 56 6 82 6 88 -2 6 -8
10 -7 14 2 10 24 47 53 62 47 9 -3 12 -3 8 1 -4 4 7 14 25 22 27 12 29 16 14
20 -10 2 -21 0 -25 -5 -12 -19 -91 -42 -177 -53 -49 -6 -99 -16 -111 -20 -14
-6 -25 -5 -28 0 -4 6 -1 10 6 10 7 0 21 8 32 18 13 10 17 11 12 3 -6 -10 -4
-13 6 -9 8 3 55 20 104 39 50 18 92 36 95 40 10 13 85 42 105 40 17 -2 17 0 5
8 -19 13 -21 13 -40 1z m-660 -261 c12 -8 10 -9 -9 -4 -16 5 -21 4 -17 -4 4
-6 2 -11 -3 -11 -12 0 -14 13 -4 23 9 9 15 9 33 -4z m250 -179 c0 -21 -4 -41
-10 -45 -5 -3 -7 -12 -3 -20 3 -8 0 -15 -6 -15 -12 0 -16 112 -5 123 14 13 24
-6 24 -43z m-66 -211 c-6 -11 -24 -2 -24 11 0 5 7 7 15 4 8 -4 12 -10 9 -15z
m-134 -3 c0 -3 -4 -8 -10 -11 -5 -3 -10 -1 -10 4 0 6 5 11 10 11 6 0 10 -2 10
-4z"/>
<path d="M1980 1315 c-36 -12 -79 -29 -97 -38 -38 -20 -47 -21 -37 -5 4 7 3 8
-5 4 -6 -4 -9 -11 -6 -16 3 -5 -2 -13 -11 -18 -8 -5 -21 -19 -27 -32 -8 -16
-26 -28 -54 -35 -23 -5 -44 -13 -48 -16 -12 -12 19 -59 47 -71 22 -10 28 -19
26 -42 -2 -21 4 -33 22 -45 13 -9 50 -42 83 -73 32 -32 67 -58 78 -58 43 0 88
38 89 75 1 19 1 19 15 2 13 -18 14 -18 24 2 17 31 14 112 -6 133 -18 20 -4 25
15 6 14 -14 16 -116 3 -151 -13 -34 -2 -41 25 -16 18 16 31 20 53 16 42 -9 61
1 61 31 0 24 0 25 -20 7 -16 -14 -25 -16 -43 -8 -15 7 -29 7 -40 1 -15 -8 -17
-3 -17 41 0 49 1 51 28 47 58 -8 81 -18 85 -39 4 -19 4 -18 6 4 1 23 -5 28
-61 44 -35 10 -70 25 -79 32 -9 7 -24 11 -33 7 -21 -8 -21 33 -1 139 8 43 15
83 15 88 0 13 -15 10 -90 -16z m56 -57 c-4 -24 -9 -71 -13 -104 -5 -59 -4 -63
21 -79 22 -14 26 -25 26 -62 0 -29 -4 -42 -11 -38 -12 8 -49 -22 -49 -40 0
-16 -43 -38 -66 -33 -14 2 -19 12 -19 33 0 24 -4 30 -22 30 -12 0 -35 10 -50
21 -15 11 -36 23 -45 27 -11 4 -18 19 -20 44 -2 28 -9 41 -28 50 -31 15 -32
37 -2 41 12 2 35 19 50 38 30 40 80 69 162 95 75 24 74 25 66 -23z"/>
<path d="M1805 1148 l-27 -23 22 -20 c16 -15 25 -17 38 -9 22 14 27 48 8 63
-11 9 -19 7 -41 -11z m35 -18 c0 -5 -8 -10 -17 -10 -15 0 -16 2 -3 10 19 12
20 12 20 0z"/>
<path d="M1870 1076 c-27 -33 18 -72 48 -42 13 13 14 20 6 34 -15 23 -38 26
-54 8z m37 -22 c-3 -3 -12 -4 -19 -1 -8 3 -5 6 6 6 11 1 17 -2 13 -5z"/>
<path d="M1932 1028 c-16 -16 -15 -33 4 -48 22 -19 54 12 38 37 -14 22 -27 26
-42 11z"/>
<path d="M2262 1295 c0 -16 2 -22 5 -12 2 9 2 23 0 30 -3 6 -5 -1 -5 -18z"/>
<path d="M1180 1299 c0 -5 -12 -20 -26 -34 -25 -25 -25 -25 -22 -3 2 16 -3 24
-17 26 -17 4 -18 2 -6 -12 7 -9 11 -25 8 -36 -3 -10 1 -24 9 -31 11 -9 14 -8
14 3 0 8 16 31 35 51 40 41 41 44 20 44 -8 0 -15 -4 -15 -8z"/>
<path d="M1325 1300 c3 -5 8 -10 11 -10 2 0 4 5 4 10 0 6 -5 10 -11 10 -5 0
-7 -4 -4 -10z"/>
<path d="M2070 1275 c0 -14 2 -25 4 -25 2 0 6 11 8 25 3 14 1 25 -3 25 -5 0
-9 -11 -9 -25z"/>
<path d="M3102 1255 c-18 -65 -122 -478 -122 -484 0 -3 5 0 10 5 13 13 132
482 127 503 -2 9 -9 -2 -15 -24z"/>
<path d="M1665 1245 c-43 -14 -28 -19 24 -9 17 4 31 10 31 15 0 11 -5 11 -55
-6z"/>
<path d="M3298 1243 c-1 -5 -18 -20 -36 -35 -19 -16 -30 -28 -25 -29 4 0 -1
-4 -13 -9 -15 -6 -24 -22 -31 -59 -5 -28 -7 -48 -2 -46 4 3 10 23 14 45 4 26
14 44 28 51 11 7 31 24 45 40 13 16 28 27 33 23 5 -3 9 2 9 10 0 16 -16 22
-22 9z"/>
<path d="M1090 1214 c7 -17 6 -32 -1 -46 -12 -21 -4 -37 10 -22 15 15 26 68
12 60 -7 -5 -11 0 -11 13 0 12 -4 21 -10 21 -6 0 -6 -9 0 -26z"/>
<path d="M2061 1225 c-1 -11 -4 -40 -6 -65 -4 -44 -4 -44 6 -11 6 18 8 47 6
65 -2 17 -5 22 -6 11z"/>
<path d="M2252 1220 c0 -14 2 -19 5 -12 2 6 2 18 0 25 -3 6 -5 1 -5 -13z"/>
<path d="M1723 1194 c-21 -15 -6 -17 37 -5 25 7 25 7 3 13 -12 3 -30 0 -40 -8z"/>
<path d="M3338 1183 c7 -3 16 -2 19 1 4 3 -2 6 -13 5 -11 0 -14 -3 -6 -6z"/>
<path d="M2605 1170 c-3 -6 1 -7 9 -4 18 7 21 14 7 14 -6 0 -13 -4 -16 -10z"/>
<path d="M1624 1142 c4 -7 1 -12 -6 -12 -8 0 -29 -16 -48 -35 -40 -42 -50 -43
-50 -10 0 14 -4 25 -8 25 -18 0 -19 -13 -4 -41 17 -29 32 -38 32 -19 0 16 27
12 34 -5 3 -8 -2 -19 -11 -23 -25 -15 -27 -72 -3 -104 16 -22 17 -28 6 -28 -8
0 -17 6 -19 13 -4 7 -6 6 -6 -4 -1 -9 6 -22 14 -29 8 -7 12 -17 8 -23 -3 -5
-1 -7 5 -3 14 9 63 -14 55 -27 -3 -6 -1 -7 6 -3 14 9 145 -50 137 -62 -2 -4
49 -8 114 -9 100 -1 122 2 132 16 10 13 10 14 -2 4 -22 -20 -35 -15 -17 5 10
10 17 26 17 34 0 19 -60 59 -95 63 -31 3 -33 -11 -2 -21 12 -4 32 -13 44 -21
l22 -15 -20 -21 c-30 -32 -139 -29 -202 6 -25 14 -47 23 -50 20 -3 -2 -15 -2
-27 2 -17 5 -19 9 -9 21 7 8 18 13 24 10 14 -5 8 41 -7 61 -6 8 0 25 19 51 25
33 32 38 45 28 20 -15 11 -31 -25 -45 -15 -6 -27 -15 -27 -22 0 -6 6 -8 13 -5
6 3 20 9 29 12 10 3 20 15 23 25 4 11 11 17 16 13 5 -3 6 -11 2 -17 -4 -8 -1
-7 9 1 14 11 16 10 11 -7 -3 -12 -10 -18 -15 -15 -5 3 -18 -2 -30 -13 -11 -10
-23 -16 -25 -13 -3 3 -11 -3 -17 -13 -9 -14 -6 -22 19 -43 17 -14 25 -23 18
-20 -6 4 -15 1 -19 -5 -5 -9 1 -10 20 -5 15 4 26 2 26 -4 0 -13 27 -13 35 0 4
6 3 9 -2 8 -15 -5 -14 12 3 43 8 17 13 34 9 37 -3 3 -8 -4 -12 -16 -3 -12 -9
-19 -14 -16 -5 3 -9 -4 -9 -15 0 -12 -5 -21 -10 -21 -6 0 -8 11 -4 26 5 19 4
25 -5 20 -6 -4 -9 -12 -6 -17 4 -5 -1 -9 -11 -9 -14 0 -14 3 -4 15 7 9 10 18
7 22 -8 8 12 33 25 33 6 0 7 -7 4 -16 -4 -9 -1 -14 6 -12 6 2 13 15 15 28 5
31 11 36 25 22 9 -9 9 -12 -1 -12 -7 0 -9 -5 -6 -11 4 -6 13 -8 21 -5 16 6 9
-17 -18 -56 -11 -16 -14 -29 -9 -33 6 -3 8 -12 4 -20 -3 -8 0 -15 6 -15 6 0
11 11 11 23 0 23 27 87 36 87 3 0 3 -4 0 -8 -3 -5 1 -9 9 -9 8 0 15 1 15 2 0
12 -84 85 -98 85 -10 0 -25 9 -35 20 -9 11 -25 20 -35 20 -10 0 -31 13 -45 30
-27 30 -37 57 -15 44 7 -4 8 -3 4 4 -13 22 10 12 34 -14 21 -21 22 -27 10 -34
-17 -11 -3 -12 22 -2 15 6 11 14 -27 55 -25 27 -45 42 -45 35 0 -8 -18 -31
-40 -53 -39 -38 -40 -38 -54 -19 -13 17 -12 20 2 25 30 12 65 56 51 64 -8 5
-10 4 -5 -3z m54 -117 l22 -25 -26 -52 c-18 -36 -22 -49 -11 -45 23 9 28 -39
7 -58 -16 -14 -21 -14 -54 2 -19 10 -36 22 -36 26 0 5 6 5 13 0 6 -4 4 5 -6
20 -10 15 -15 33 -11 39 4 6 3 8 -3 5 -16 -10 -25 23 -12 39 6 8 8 14 4 14 -9
0 77 60 86 60 3 0 15 -11 27 -25z m54 -157 c-7 -7 -12 -8 -12 -2 0 14 12 26
19 19 2 -3 -1 -11 -7 -17z"/>
<path d="M1618 893 c7 -3 16 -2 19 1 4 3 -2 6 -13 5 -11 0 -14 -3 -6 -6z"/>
<path d="M2166 1135 c-11 -8 -15 -15 -9 -15 6 0 16 7 23 15 16 19 11 19 -14 0z"/>
<path d="M3260 1132 c-18 -11 -36 -25 -38 -33 -3 -9 3 -7 17 6 13 11 35 25 49
32 15 6 22 12 17 12 -6 1 -26 -7 -45 -17z"/>
<path d="M1097 1133 c-16 -4 -73 -53 -61 -53 9 0 104 50 104 55 0 6 -17 5 -43
-2z"/>
<path d="M2185 1110 c3 -5 8 -10 11 -10 2 0 4 5 4 10 0 6 -5 10 -11 10 -5 0
-7 -4 -4 -10z"/>
<path d="M1405 1080 c3 -5 8 -10 11 -10 2 0 4 5 4 10 0 6 -5 10 -11 10 -5 0
-7 -4 -4 -10z"/>
<path d="M2231 1074 c0 -11 3 -14 6 -6 3 7 2 16 -1 19 -3 4 -6 -2 -5 -13z"/>
<path d="M1175 1039 c-4 -6 -14 -8 -22 -5 -8 3 -11 2 -8 -3 3 -5 1 -12 -5 -16
-14 -9 -12 -25 3 -19 12 5 52 54 43 54 -3 0 -8 -5 -11 -11z"/>
<path d="M1219 1016 c-7 -14 -15 -26 -19 -26 -3 0 -17 -19 -30 -42 -13 -24
-30 -49 -37 -57 -23 -22 -9 -23 38 -1 37 18 39 21 14 17 -26 -5 -28 -4 -12 8
10 7 19 22 20 34 1 12 5 21 9 21 10 0 41 60 34 67 -3 3 -11 -6 -17 -21z"/>
<path d="M1374 1015 c-7 -16 3 -35 17 -35 6 0 7 9 4 20 -7 21 10 28 18 8 3 -8
6 -6 6 5 1 21 -37 24 -45 2z"/>
<path d="M3171 1014 c0 -11 3 -14 6 -6 3 7 2 16 -1 19 -3 4 -6 -2 -5 -13z"/>
<path d="M1062 981 c-17 -55 -14 -61 8 -21 21 38 25 60 12 60 -5 0 -14 -17
-20 -39z"/>
<path d="M1430 1011 c0 -6 4 -13 10 -16 6 -3 7 1 4 9 -7 18 -14 21 -14 7z"/>
<path d="M1101 997 c-7 -10 -9 -17 -4 -17 5 0 9 -10 10 -21 1 -12 -1 -19 -4
-16 -10 11 -52 -38 -58 -68 -6 -27 -5 -28 6 -10 7 10 24 31 37 44 l25 25 -7
-29 c-5 -24 -4 -26 4 -12 6 9 10 40 8 69 -3 45 -5 49 -17 35z"/>
<path d="M2570 985 c0 -8 2 -15 4 -15 2 0 6 7 10 15 3 8 1 15 -4 15 -6 0 -10
-7 -10 -15z"/>
<path d="M1409 988 c-14 -58 -4 -202 12 -163 12 32 11 77 -3 69 -7 -5 -9 -2
-6 7 17 45 19 59 7 59 -9 0 -8 4 1 15 9 10 9 15 1 15 -6 0 -11 -1 -12 -2z"/>
<path d="M3161 974 c0 -11 3 -14 6 -6 3 7 2 16 -1 19 -3 4 -6 -2 -5 -13z"/>
<path d="M1139 963 c-13 -16 -12 -17 4 -4 9 7 17 15 17 17 0 8 -8 3 -21 -13z"/>
<path d="M1225 946 c-19 -15 -19 -15 6 -16 14 0 34 7 45 16 18 15 18 15 -3 5
-14 -7 -22 -8 -25 -1 -2 7 -11 5 -23 -4z"/>
<path d="M2560 934 c0 -14 4 -23 9 -19 11 6 10 45 -1 45 -4 0 -8 -12 -8 -26z"/>
<path d="M2130 911 c0 -5 7 -11 14 -14 10 -4 13 -1 9 9 -6 15 -23 19 -23 5z"/>
<path d="M3326 893 c-6 -14 -5 -15 5 -6 7 7 10 15 7 18 -3 3 -9 -2 -12 -12z"/>
<path d="M2050 885 c0 -8 -5 -15 -11 -15 -5 0 -7 -5 -3 -11 5 -8 9 -8 14 1 4
7 13 9 20 5 9 -6 9 -3 1 14 -14 25 -21 27 -21 6z"/>
<path d="M1195 880 c-3 -4 7 -7 20 -7 14 0 27 3 30 7 3 4 -7 8 -20 8 -14 0
-27 -4 -30 -8z"/>
<path d="M2100 875 c-19 -22 -8 -25 13 -3 9 10 13 18 8 18 -5 0 -14 -7 -21
-15z"/>
<path d="M2208 883 c7 -3 16 -2 19 1 4 3 -2 6 -13 5 -11 0 -14 -3 -6 -6z"/>
<path d="M3142 870 c0 -14 2 -19 5 -12 2 6 2 18 0 25 -3 6 -5 1 -5 -13z"/>
<path d="M1080 855 c-7 -8 -10 -15 -7 -15 3 0 2 -13 -3 -29 -14 -50 3 -57 47
-18 29 26 48 36 71 35 18 -1 35 2 39 5 3 4 -1 7 -11 7 -9 0 -14 5 -11 10 3 6
2 10 -4 10 -5 0 -13 -4 -16 -10 -3 -5 -12 -10 -18 -9 -9 0 -9 2 1 6 14 5 16
23 3 23 -16 0 -71 -61 -71 -78 0 -11 -3 -13 -11 -5 -7 7 -8 22 -1 47 11 40 10
43 -8 21z"/>
<path d="M2180 860 c0 -5 5 -10 10 -10 6 0 10 5 10 10 0 6 -4 10 -10 10 -5 0
-10 -4 -10 -10z"/>
<path d="M2116 848 c3 -4 11 -5 19 -1 21 7 19 12 -4 10 -11 0 -18 -5 -15 -9z"/>
<path d="M1041 824 c0 -11 3 -14 6 -6 3 7 2 16 -1 19 -3 4 -6 -2 -5 -13z"/>
<path d="M1244 824 c-17 -14 -17 -15 -1 -10 10 3 28 6 40 6 18 0 19 2 7 10
-20 13 -23 13 -46 -6z"/>
<path d="M2025 830 c3 -5 8 -10 11 -10 2 0 4 5 4 10 0 6 -5 10 -11 10 -5 0 -7
-4 -4 -10z"/>
<path d="M2540 826 c0 -2 7 -9 15 -16 13 -11 14 -10 9 4 -5 14 -24 23 -24 12z"/>
<path d="M1154 805 c-10 -8 -14 -15 -8 -15 6 0 17 7 24 15 16 19 9 19 -16 0z"/>
<path d="M1390 805 c0 -8 4 -15 10 -15 5 0 7 7 4 15 -4 8 -8 15 -10 15 -2 0
-4 -7 -4 -15z"/>
<path d="M2138 813 c12 -2 30 -2 40 0 9 3 -1 5 -23 4 -22 0 -30 -2 -17 -4z"/>
<path d="M3271 789 c-13 -11 -21 -22 -17 -26 3 -4 16 4 27 16 27 29 21 35 -10
10z"/>
<path d="M2620 792 c0 -4 9 -13 20 -20 19 -12 20 -11 8 8 -13 20 -28 27 -28
12z"/>
<path d="M3185 789 c-11 -16 -1 -19 13 -3 7 8 8 14 3 14 -5 0 -13 -5 -16 -11z"/>
<path d="M2058 782 c-21 -4 -30 -29 -13 -36 7 -2 26 -1 42 4 l28 8 -35 3 -35
2 40 6 c22 3 41 4 42 1 4 -7 107 0 115 8 7 7 -154 10 -184 4z"/>
<path d="M1127 763 c4 -11 3 -14 -5 -9 -7 4 -18 4 -24 -1 -14 -8 130 -21 170
-14 50 8 17 16 -55 13 -49 -2 -73 1 -65 6 11 7 10 10 -3 16 -24 9 -25 8 -18
-11z"/>
<path d="M3150 769 c0 -5 5 -7 10 -4 6 3 10 8 10 11 0 2 -4 4 -10 4 -5 0 -10
-5 -10 -11z"/>
<path d="M2705 760 c3 -5 8 -10 11 -10 2 0 4 5 4 10 0 6 -5 10 -11 10 -5 0 -7
-4 -4 -10z"/>
<path d="M2195 750 c-22 -4 -33 -8 -25 -9 8 -1 25 -4 36 -7 14 -4 23 0 27 10
4 9 5 15 4 15 -1 -1 -20 -5 -42 -9z"/>
<path d="M3105 656 c-17 -70 -17 -70 4 -84 13 -9 21 -25 21 -42 0 -52 31 -41
75 25 22 33 40 62 41 65 0 3 10 25 21 50 11 25 20 46 19 47 0 1 -38 3 -83 5
l-81 5 -17 -71z m159 30 c-10 -33 -40 -79 -73 -110 l-30 -29 -25 29 c-21 24
-24 36 -20 69 9 68 8 66 84 64 66 -2 70 -3 64 -23z"/>
<path d="M1131 606 c2 -2 24 -13 49 -25 l45 -21 -28 25 c-15 14 -38 25 -49 25
-12 0 -19 -2 -17 -4z"/>
<path d="M3095 530 c3 -5 8 -10 11 -10 2 0 4 5 4 10 0 6 -5 10 -11 10 -5 0 -7
-4 -4 -10z"/>
<path d="M3060 504 c0 -8 5 -12 10 -9 6 3 10 10 10 16 0 5 -4 9 -10 9 -5 0
-10 -7 -10 -16z"/>
<path d="M3211 504 c0 -11 3 -14 6 -6 3 7 2 16 -1 19 -3 4 -6 -2 -5 -13z"/>
<path d="M3100 496 c0 -2 7 -9 15 -16 13 -11 14 -10 9 4 -5 14 -24 23 -24 12z"/>
<path d="M3077 476 c-3 -8 -2 -18 3 -21 13 -8 20 9 11 24 -6 10 -10 9 -14 -3z"/>
<path d="M3045 456 c10 -14 19 -26 22 -26 7 0 -17 39 -28 46 -6 3 -3 -5 6 -20z"/>
<path d="M3115 450 c3 -5 11 -10 16 -10 6 0 7 5 4 10 -3 6 -11 10 -16 10 -6 0
-7 -4 -4 -10z"/>
<path d="M3040 407 c19 -21 35 -41 35 -45 0 -4 3 -6 7 -5 4 2 27 -20 51 -47
27 -30 67 -60 99 -75 57 -26 138 -43 138 -29 0 5 -18 10 -39 10 -21 1 -63 14
-92 29 -54 26 -129 94 -129 115 0 6 -4 9 -9 6 -10 -7 -33 18 -26 27 3 4 2 5
-2 2 -4 -3 -20 7 -37 22 -26 24 -26 22 4 -10z"/>
<path d="M3145 380 c3 -5 8 -10 11 -10 2 0 4 5 4 10 0 6 -5 10 -11 10 -5 0 -7
-4 -4 -10z"/>
<path d="M1100 352 c0 -25 11 -34 28 -23 9 5 7 12 -8 26 -19 18 -20 18 -20 -3z"/>
<path d="M3270 296 c0 -2 7 -6 15 -10 8 -3 15 -1 15 4 0 6 -7 10 -15 10 -8 0
-15 -2 -15 -4z"/>
<path d="M3235 270 c3 -5 8 -10 11 -10 2 0 4 5 4 10 0 6 -5 10 -11 10 -5 0 -7
-4 -4 -10z"/>
<path d="M3192 224 c10 -10 20 -15 24 -12 3 4 -5 12 -18 18 -22 12 -22 12 -6
-6z"/>
<path d="M3234 176 c11 -9 27 -16 35 -15 14 0 14 1 1 6 -8 3 -24 10 -35 15
-20 9 -20 9 -1 -6z"/>
<path d="M3285 180 c3 -6 20 -10 37 -10 38 0 34 5 -10 13 -21 4 -31 3 -27 -3z"/>
<path d="M1450 606 c0 -12 -11 -35 -25 -50 -17 -19 -25 -39 -25 -64 0 -20 -3
-54 -6 -74 -8 -47 15 -53 34 -10 7 15 23 45 37 67 28 46 31 84 10 125 -19 36
-25 38 -25 6z m-2 -124 l-23 -37 -3 37 c-2 27 3 42 20 60 l23 23 3 -23 c2 -12
-7 -39 -20 -60z"/>
<path d="M1476 456 c-28 -48 -32 -61 -16 -51 13 8 53 86 47 91 -3 3 -16 -15
-31 -40z"/>
<path d="M1330 220 c0 -5 5 -10 11 -10 5 0 7 5 4 10 -3 6 -8 10 -11 10 -2 0
-4 -4 -4 -10z"/>
<path d="M1332 170 c0 -14 2 -19 5 -12 2 6 2 18 0 25 -3 6 -5 1 -5 -13z"/>
<path d="M1320 100 c0 -11 0 -22 0 -25 0 -3 3 -5 8 -5 4 0 7 11 7 25 1 14 -3
25 -7 25 -4 0 -8 -9 -8 -20z"/>
</g>
</svg>
